<svg width="1039" height="212" viewBox="0 0 1039 212" fill="none" xmlns="http://www.w3.org/2000/svg">
    <path d="M111.516 115.328h816" stroke="#000" stroke-dasharray="8 8"/>
    <circle cx="279.281" cy="115.328" r="10.797" fill="#5E3FBE"/>
    <circle cx="519.516" cy="115.328" r="10.797" fill="#5E3FBE"/>
    <circle cx="759.75" cy="115.328" r="10.797" fill="#5E3FBE"/>
    <path d="M279.28 115.38v-30M519.516 145.328v-30M759.75 115.38v-30" stroke="#5E3FBE" stroke-width="3"/>
    <path d="M275.896 74.97v-2.379l6.312-6.188a29.448 29.448 0 0 0 1.509-1.625c.403-.473.705-.932.906-1.376.201-.444.302-.917.302-1.42 0-.574-.13-1.065-.391-1.474a2.593 2.593 0 0 0-1.074-.959c-.456-.224-.974-.337-1.554-.337-.597 0-1.121.124-1.571.373-.45.243-.799.589-1.048 1.039-.242.45-.364.985-.364 1.606h-3.133c0-1.154.263-2.157.79-3.01a5.323 5.323 0 0 1 2.175-1.979c.929-.467 1.994-.701 3.196-.701 1.219 0 2.29.228 3.214.683.923.456 1.639 1.08 2.148 1.874.515.793.772 1.698.772 2.716 0 .68-.13 1.35-.39 2.007-.261.657-.719 1.385-1.376 2.184-.651.799-1.566 1.766-2.744 2.903l-3.134 3.187v.124h7.92v2.752h-12.465zm22.248.347c-1.462 0-2.717-.37-3.764-1.11-1.042-.746-1.844-1.82-2.406-3.223-.557-1.409-.835-3.104-.835-5.087.006-1.983.287-3.67.844-5.06.562-1.397 1.364-2.462 2.406-3.196 1.047-.734 2.299-1.101 3.755-1.101s2.708.367 3.755 1.1c1.048.735 1.85 1.8 2.406 3.197.562 1.396.844 3.083.844 5.06 0 1.989-.282 3.687-.844 5.096-.556 1.403-1.358 2.474-2.406 3.214-1.041.74-2.293 1.11-3.755 1.11zm0-2.78c1.136 0 2.033-.559 2.69-1.677.663-1.125.994-2.779.994-4.963 0-1.444-.151-2.657-.453-3.64-.301-.982-.728-1.722-1.278-2.22a2.797 2.797 0 0 0-1.953-.754c-1.131 0-2.024.562-2.681 1.687-.657 1.119-.989 2.76-.995 4.927-.005 1.45.14 2.67.435 3.658.302.988.728 1.734 1.279 2.237.55.497 1.204.746 1.962.746zm17.349-15.749V74.97H312.2V59.993h-.107l-4.252 2.717V59.69l4.519-2.903h3.133zm12.012 0V74.97h-3.294V59.993h-.106l-4.253 2.717V59.69l4.519-2.903h3.134zM757.366 74.97v-2.379l6.312-6.188a29.448 29.448 0 0 0 1.509-1.625c.403-.473.704-.932.906-1.376.201-.444.302-.917.302-1.42 0-.574-.131-1.065-.391-1.474a2.605 2.605 0 0 0-1.074-.959c-.456-.224-.974-.337-1.554-.337-.598 0-1.122.124-1.571.373-.45.243-.799.589-1.048 1.039-.243.45-.364.985-.364 1.606h-3.134c0-1.154.264-2.157.79-3.01a5.335 5.335 0 0 1 2.175-1.979c.93-.467 1.995-.701 3.196-.701 1.22 0 2.291.228 3.214.683.924.456 1.64 1.08 2.149 1.874.515.793.772 1.698.772 2.716 0 .68-.13 1.35-.391 2.007-.26.657-.719 1.385-1.376 2.184-.651.799-1.565 1.766-2.743 2.903l-3.134 3.187v.124h7.919v2.752h-12.464zm22.248.347c-1.462 0-2.717-.37-3.765-1.11-1.041-.746-1.843-1.82-2.405-3.223-.557-1.409-.835-3.104-.835-5.087.006-1.983.287-3.67.843-5.06.563-1.397 1.365-2.462 2.406-3.196 1.048-.734 2.3-1.101 3.756-1.101s2.707.367 3.755 1.1c1.048.735 1.85 1.8 2.406 3.197.562 1.396.843 3.083.843 5.06 0 1.989-.281 3.687-.843 5.096-.556 1.403-1.358 2.474-2.406 3.214-1.042.74-2.293 1.11-3.755 1.11zm0-2.78c1.136 0 2.033-.559 2.69-1.677.663-1.125.994-2.779.994-4.963 0-1.444-.151-2.657-.453-3.64-.302-.982-.728-1.722-1.278-2.22a2.8 2.8 0 0 0-1.953-.754c-1.131 0-2.025.562-2.681 1.687-.657 1.119-.989 2.76-.995 4.927-.006 1.45.139 2.67.435 3.658.302.988.728 1.734 1.279 2.237.55.497 1.204.746 1.962.746zm17.349-15.749V74.97h-3.294V59.993h-.106l-4.253 2.717V59.69l4.519-2.903h3.134zm10.938 18.43c-1.184 0-2.243-.221-3.179-.665-.935-.45-1.678-1.065-2.228-1.847-.544-.78-.834-1.675-.87-2.68h3.196c.059.745.382 1.355.968 1.828.586.468 1.29.701 2.113.701.645 0 1.219-.148 1.722-.443.503-.296.9-.708 1.19-1.234.29-.527.432-1.128.426-1.803.006-.686-.139-1.296-.435-1.829a3.256 3.256 0 0 0-1.217-1.251c-.514-.308-1.106-.462-1.775-.462a4.23 4.23 0 0 0-1.607.302c-.527.207-.944.48-1.252.817l-2.974-.489.95-9.375h10.547v2.753h-7.821l-.524 4.82h.106c.338-.396.814-.725 1.43-.985.615-.267 1.29-.4 2.024-.4 1.101 0 2.083.26 2.947.782a5.524 5.524 0 0 1 2.042 2.13c.497.906.746 1.941.746 3.107 0 1.202-.278 2.273-.835 3.214a5.903 5.903 0 0 1-2.299 2.21c-.977.534-2.107.8-3.391.8zM516.616 192.423v-2.379l6.312-6.188a29.387 29.387 0 0 0 1.509-1.624c.403-.474.704-.933.906-1.376.201-.444.302-.918.302-1.421 0-.574-.131-1.065-.391-1.474a2.599 2.599 0 0 0-1.074-.958c-.456-.225-.974-.338-1.554-.338-.598 0-1.122.124-1.571.373a2.57 2.57 0 0 0-1.048 1.039c-.243.45-.364.985-.364 1.607h-3.134c0-1.154.264-2.158.79-3.01a5.34 5.34 0 0 1 2.175-1.98c.93-.467 1.995-.701 3.196-.701 1.22 0 2.291.228 3.214.684.924.455 1.64 1.08 2.149 1.873.515.793.772 1.698.772 2.716 0 .681-.13 1.35-.391 2.007-.26.657-.719 1.385-1.376 2.184-.651.799-1.565 1.766-2.743 2.903l-3.134 3.187v.124h7.919v2.752h-12.464zm22.248.347c-1.462 0-2.717-.37-3.765-1.11-1.041-.746-1.843-1.82-2.405-3.223-.557-1.408-.835-3.104-.835-5.087.006-1.983.287-3.669.843-5.06.563-1.397 1.365-2.462 2.406-3.196 1.048-.734 2.3-1.101 3.756-1.101s2.707.367 3.755 1.101 1.85 1.799 2.406 3.196c.562 1.397.843 3.083.843 5.06 0 1.989-.281 3.687-.843 5.096-.556 1.403-1.358 2.474-2.406 3.214-1.042.74-2.293 1.11-3.755 1.11zm0-2.779c1.136 0 2.033-.559 2.69-1.678.663-1.125.994-2.779.994-4.963 0-1.444-.151-2.657-.453-3.64-.302-.982-.728-1.722-1.278-2.219a2.801 2.801 0 0 0-1.953-.755c-1.131 0-2.025.562-2.681 1.687-.657 1.119-.989 2.761-.995 4.927-.006 1.45.139 2.669.435 3.658.302.988.728 1.734 1.279 2.237.55.497 1.204.746 1.962.746zm17.349-15.749v18.181h-3.294v-14.977h-.106l-4.253 2.717v-3.018l4.519-2.903h3.134zm11.142 18.43c-1.279 0-2.415-.219-3.409-.657-.989-.438-1.77-1.048-2.344-1.829-.574-.781-.879-1.684-.914-2.708h3.338c.029.492.192.921.488 1.288.296.361.689.642 1.181.843a4.32 4.32 0 0 0 1.651.302c.651 0 1.228-.113 1.731-.337.503-.231.897-.551 1.181-.959.284-.409.423-.879.417-1.412a2.452 2.452 0 0 0-.426-1.456c-.29-.42-.71-.748-1.261-.985-.544-.237-1.201-.355-1.971-.355h-1.606v-2.539h1.606c.634 0 1.187-.11 1.661-.329a2.687 2.687 0 0 0 1.127-.923c.272-.403.406-.867.4-1.394.006-.515-.11-.962-.347-1.341a2.335 2.335 0 0 0-.985-.896c-.42-.213-.914-.32-1.483-.32-.556 0-1.071.101-1.544.302a2.806 2.806 0 0 0-1.146.861c-.29.367-.444.805-.461 1.314h-3.17c.024-1.018.317-1.912.879-2.681.568-.775 1.326-1.379 2.273-1.811.947-.438 2.009-.657 3.187-.657 1.213 0 2.267.228 3.161.684.899.449 1.595 1.056 2.086 1.819.491.764.737 1.607.737 2.531.006 1.024-.296 1.882-.906 2.574-.603.693-1.397 1.145-2.379 1.359v.142c1.278.177 2.258.651 2.939 1.42.686.764 1.026 1.713 1.02 2.85a4.56 4.56 0 0 1-.87 2.734c-.574.799-1.367 1.427-2.379 1.882-1.006.456-2.16.684-3.462.684z" fill="#DF4141"/>
    <path d="M279.411 39.788h1.233v7.279c0 .65-.119 1.201-.358 1.655a2.434 2.434 0 0 1-1.009 1.034c-.434.236-.947.353-1.536.353-.557 0-1.053-.1-1.487-.303a2.448 2.448 0 0 1-1.024-.875c-.249-.378-.373-.827-.373-1.347h1.213c0 .288.071.54.214.755.146.213.345.378.596.498.252.119.539.179.861.179.354 0 .656-.075.904-.224.249-.15.438-.368.567-.656.133-.292.199-.648.199-1.07v-7.278zm8.357 7.06v-4.514h1.173v7.636h-1.173v-1.292h-.079a2.505 2.505 0 0 1-.836.989c-.377.268-.855.403-1.431.403a2.55 2.55 0 0 1-1.273-.314 2.192 2.192 0 0 1-.875-.954c-.212-.428-.318-.966-.318-1.616v-4.852h1.173v4.773c0 .556.156 1 .467 1.332.315.331.716.497 1.203.497.292 0 .589-.074.89-.224.305-.149.56-.377.766-.686.209-.308.313-.7.313-1.178zm4.496-7.06V49.97h-1.174V39.788h1.174zm2.904 13.046c-.198 0-.376-.017-.532-.05a1.414 1.414 0 0 1-.323-.09l.299-1.033c.285.072.537.099.755.08a.906.906 0 0 0 .582-.294c.172-.173.33-.453.472-.84l.219-.597-2.824-7.676h1.273l2.108 6.085h.079l2.108-6.085h1.273l-3.241 8.75c-.146.394-.327.72-.542.98a2.036 2.036 0 0 1-.751.58c-.282.127-.6.19-.955.19zM762.881 39.788h1.233v7.279c0 .65-.12 1.201-.358 1.655a2.431 2.431 0 0 1-1.01 1.034c-.434.236-.946.353-1.536.353-.557 0-1.052-.1-1.486-.303a2.448 2.448 0 0 1-1.024-.875c-.249-.378-.373-.827-.373-1.347h1.213c0 .288.071.54.214.755.145.213.344.378.596.498.252.119.539.179.86.179.355 0 .656-.075.905-.224.249-.15.438-.368.567-.656.132-.292.199-.648.199-1.07v-7.278zm8.357 7.06v-4.514h1.173v7.636h-1.173v-1.292h-.08a2.503 2.503 0 0 1-.835.989c-.378.268-.855.403-1.432.403-.477 0-.901-.105-1.272-.314-.372-.212-.663-.53-.875-.954-.213-.428-.319-.966-.319-1.616v-4.852h1.174v4.773c0 .556.155 1 .467 1.332.315.331.716.497 1.203.497.292 0 .588-.074.89-.224.305-.149.56-.377.766-.686.209-.308.313-.7.313-1.178zm4.495-7.06V49.97h-1.173V39.788h1.173zm2.905 13.046c-.199 0-.376-.017-.532-.05a1.398 1.398 0 0 1-.323-.09l.298-1.033c.285.072.537.099.756.08a.906.906 0 0 0 .582-.294c.172-.173.329-.453.472-.84l.219-.597-2.824-7.676h1.273l2.108 6.085h.079l2.108-6.085h1.273l-3.242 8.75c-.146.394-.326.72-.542.98a2.025 2.025 0 0 1-.75.58c-.282.127-.6.19-.955.19zM523.801 159.787a1.558 1.558 0 0 0-.726-1.173c-.424-.279-.944-.418-1.561-.418-.451 0-.845.073-1.183.219a1.892 1.892 0 0 0-.786.601 1.449 1.449 0 0 0-.278.87c0 .272.065.506.194.701.133.193.302.353.507.483.206.126.421.23.646.313.226.079.433.144.622.194l1.034.278c.265.07.56.166.885.289.328.122.641.29.939.502.302.208.551.477.746.805.196.328.294.731.294 1.208 0 .55-.145 1.047-.433 1.492-.285.444-.703.797-1.253 1.059-.547.261-1.211.392-1.993.392-.73 0-1.361-.117-1.895-.353-.53-.235-.948-.563-1.252-.984a2.809 2.809 0 0 1-.513-1.467h1.273c.033.385.163.703.388.955.229.248.517.434.865.557a3.51 3.51 0 0 0 1.134.179c.47 0 .893-.077 1.267-.229.375-.156.671-.371.89-.646.219-.279.328-.604.328-.975 0-.338-.094-.613-.283-.825a2.078 2.078 0 0 0-.746-.517 7.687 7.687 0 0 0-.999-.348l-1.253-.358c-.795-.229-1.425-.555-1.889-.979-.464-.425-.696-.98-.696-1.666 0-.57.154-1.067.462-1.491a3.075 3.075 0 0 1 1.253-.995 4.24 4.24 0 0 1 1.765-.358c.656 0 1.24.118 1.75.353.51.232.915.55 1.213.955.302.404.461.863.477 1.377h-1.193zm6.402 7.795c-.735 0-1.37-.162-1.904-.487a3.273 3.273 0 0 1-1.228-1.372c-.285-.59-.427-1.276-.427-2.058 0-.782.142-1.472.427-2.068.289-.6.69-1.068 1.203-1.402.517-.338 1.121-.507 1.81-.507.398 0 .79.066 1.178.198.388.133.741.348 1.059.647.318.295.572.686.761 1.173.189.487.283 1.087.283 1.8v.497h-5.886v-1.014h4.693a2.51 2.51 0 0 0-.258-1.154 1.95 1.95 0 0 0-.726-.8c-.312-.196-.68-.293-1.104-.293-.467 0-.872.116-1.213.348a2.295 2.295 0 0 0-.781.894 2.636 2.636 0 0 0-.273 1.184v.676c0 .576.099 1.065.298 1.466.202.398.482.701.84.91.358.206.774.308 1.248.308.309 0 .587-.043.836-.129.251-.089.469-.222.651-.398.182-.179.323-.401.422-.666l1.134.318a2.51 2.51 0 0 1-.602 1.015 2.932 2.932 0 0 1-1.044.676c-.414.159-.88.238-1.397.238zm4.947 2.705v-10.5h1.134V161h.139c.086-.133.205-.302.358-.507.155-.209.378-.394.666-.557.292-.166.686-.248 1.183-.248.643 0 1.21.16 1.7.482.491.321.874.777 1.149 1.367s.413 1.286.413 2.088c0 .809-.138 1.51-.413 2.103-.275.59-.656 1.047-1.144 1.372-.487.322-1.049.482-1.685.482-.49 0-.883-.081-1.178-.243a2.184 2.184 0 0 1-.681-.562 7.523 7.523 0 0 1-.368-.527h-.1v4.037h-1.173zm1.153-6.682c0 .577.085 1.086.254 1.526.169.438.416.781.741 1.03.325.245.722.367 1.193.367.49 0 .9-.129 1.228-.387.331-.262.58-.613.746-1.054.169-.444.253-.938.253-1.482 0-.537-.083-1.021-.248-1.452a2.252 2.252 0 0 0-.741-1.029c-.328-.255-.741-.382-1.238-.382-.477 0-.878.12-1.203.362-.325.239-.57.574-.736 1.005-.166.427-.249.926-.249 1.496zm10.699-3.818v.994h-3.957v-.994h3.957zm-2.804-1.83h1.174v7.279c0 .331.048.58.144.746a.748.748 0 0 0 .378.328c.155.053.319.079.492.079a1.988 1.988 0 0 0 .517-.059l.239 1.054c-.08.029-.191.059-.334.089-.142.033-.323.05-.541.05-.332 0-.657-.071-.975-.214a1.936 1.936 0 0 1-.785-.651c-.206-.292-.309-.66-.309-1.104v-7.597zm7.689 9.625c-.736 0-1.371-.162-1.904-.487a3.26 3.26 0 0 1-1.228-1.372c-.285-.59-.428-1.276-.428-2.058 0-.782.143-1.472.428-2.068.288-.6.689-1.068 1.203-1.402.517-.338 1.12-.507 1.81-.507.397 0 .79.066 1.178.198.388.133.741.348 1.059.647.318.295.572.686.76 1.173.189.487.284 1.087.284 1.8v.497h-5.887v-1.014h4.694a2.51 2.51 0 0 0-.259-1.154 1.943 1.943 0 0 0-.726-.8c-.311-.196-.679-.293-1.103-.293-.468 0-.872.116-1.213.348a2.28 2.28 0 0 0-.781.894 2.636 2.636 0 0 0-.273 1.184v.676c0 .576.099 1.065.298 1.466.202.398.482.701.84.91.358.206.774.308 1.248.308.308 0 .587-.043.835-.129.252-.089.469-.222.651-.398.183-.179.324-.401.423-.666l1.134.318a2.52 2.52 0 0 1-.602 1.015 2.95 2.95 0 0 1-1.044.676c-.414.159-.88.238-1.397.238zm4.947-.159v-7.636h1.133v1.193h.1c.159-.408.416-.724.77-.949.355-.229.781-.343 1.278-.343.504 0 .923.114 1.258.343.338.225.601.541.79.949h.08c.195-.394.489-.707.88-.939.391-.236.86-.353 1.407-.353.682 0 1.241.213 1.675.641.434.424.651 1.085.651 1.984v5.11h-1.173v-5.11c0-.564-.154-.967-.462-1.209a1.712 1.712 0 0 0-1.089-.362c-.537 0-.953.162-1.248.487-.295.321-.442.729-.442 1.223v4.971h-1.194v-5.23c0-.434-.14-.784-.422-1.049-.282-.268-.645-.402-1.089-.402-.305 0-.59.081-.855.243a1.841 1.841 0 0 0-.636.676c-.16.285-.239.615-.239.99v4.772h-1.173zm12.327 0v-10.181h1.173V161h.099c.087-.133.206-.302.358-.507.156-.209.378-.394.667-.557.291-.166.686-.248 1.183-.248.643 0 1.21.16 1.7.482.491.321.873.777 1.149 1.367.275.59.412 1.286.412 2.088 0 .809-.137 1.51-.412 2.103-.276.59-.657 1.047-1.144 1.372-.487.322-1.049.482-1.685.482-.491 0-.884-.081-1.179-.243a2.184 2.184 0 0 1-.681-.562 7.881 7.881 0 0 1-.368-.527h-.139v1.173h-1.133zm1.153-3.818c0 .577.085 1.086.254 1.526.169.438.416.781.74 1.03.325.245.723.367 1.194.367.49 0 .899-.129 1.228-.387.331-.262.58-.613.745-1.054.169-.444.254-.938.254-1.482 0-.537-.083-1.021-.249-1.452a2.243 2.243 0 0 0-.74-1.029c-.329-.255-.741-.382-1.238-.382-.478 0-.879.12-1.204.362-.324.239-.57.574-.735 1.005-.166.427-.249.926-.249 1.496zm10.585 3.977c-.736 0-1.371-.162-1.905-.487a3.264 3.264 0 0 1-1.227-1.372c-.286-.59-.428-1.276-.428-2.058 0-.782.142-1.472.428-2.068.288-.6.689-1.068 1.203-1.402.517-.338 1.12-.507 1.809-.507.398 0 .791.066 1.179.198.387.133.74.348 1.059.647.318.295.571.686.76 1.173.189.487.284 1.087.284 1.8v.497h-5.887v-1.014h4.693a2.51 2.51 0 0 0-.258-1.154 1.943 1.943 0 0 0-.726-.8c-.312-.196-.679-.293-1.104-.293-.467 0-.871.116-1.213.348a2.285 2.285 0 0 0-.78.894 2.623 2.623 0 0 0-.274 1.184v.676c0 .576.1 1.065.299 1.466.202.398.482.701.84.91.358.206.774.308 1.248.308.308 0 .586-.043.835-.129.252-.089.469-.222.651-.398a1.82 1.82 0 0 0 .423-.666l1.133.318c-.119.385-.32.723-.601 1.015a2.95 2.95 0 0 1-1.044.676c-.415.159-.88.238-1.397.238zm4.946-.159v-7.636h1.134v1.153h.079c.14-.377.392-.684.756-.919a2.22 2.22 0 0 1 1.233-.353 10.33 10.33 0 0 1 .617.02v1.193a3.474 3.474 0 0 0-.274-.045 2.712 2.712 0 0 0-.442-.035c-.372 0-.703.078-.995.234a1.759 1.759 0 0 0-.686.636 1.722 1.722 0 0 0-.248.92v4.832h-1.174z" fill="#626262"/>
    <path d="M757.041 144.773h2.902l3.887 9.486h.153l3.886-9.486h2.902v13.091h-2.275v-8.994h-.122l-3.618 8.955h-1.7l-3.618-8.974h-.121v9.013h-2.276v-13.091zm16.21 13.091v-9.818h2.314v9.818h-2.314zm1.164-11.212c-.367 0-.682-.121-.946-.364a1.177 1.177 0 0 1-.397-.889c0-.349.133-.645.397-.888.264-.247.579-.371.946-.371.371 0 .686.124.946.371.264.243.396.539.396.888 0 .345-.132.642-.396.889-.26.243-.575.364-.946.364zm7.812 11.404c-.98 0-1.821-.216-2.524-.646a4.317 4.317 0 0 1-1.618-1.783c-.375-.763-.562-1.641-.562-2.634 0-.997.192-1.877.575-2.64a4.297 4.297 0 0 1 1.624-1.79c.703-.43 1.534-.645 2.493-.645.797 0 1.502.147 2.115.441.618.29 1.111.701 1.477 1.233.366.529.575 1.147.626 1.854h-2.211a2.119 2.119 0 0 0-.639-1.182c-.333-.32-.778-.48-1.336-.48a2.09 2.09 0 0 0-1.247.384c-.358.251-.637.613-.837 1.086-.196.473-.294 1.04-.294 1.701 0 .669.098 1.244.294 1.726.196.477.471.845.824 1.105a2.11 2.11 0 0 0 1.26.384 2.1 2.1 0 0 0 .914-.192c.272-.132.5-.322.684-.569.183-.247.309-.547.377-.901h2.211a3.856 3.856 0 0 1-.613 1.847 3.626 3.626 0 0 1-1.445 1.253c-.609.298-1.325.448-2.148.448zm6.106-.192v-9.818h2.244v1.636h.102c.179-.567.486-1.004.921-1.31a2.533 2.533 0 0 1 1.502-.467c.128 0 .271.006.428.019.162.009.296.024.403.045v2.128a2.49 2.49 0 0 0-.467-.089 4.269 4.269 0 0 0-.607-.045c-.422 0-.801.092-1.138.275a2.013 2.013 0 0 0-.786.748c-.192.32-.288.688-.288 1.106v5.772h-2.314zm11.016.192c-.959 0-1.79-.211-2.493-.633a4.3 4.3 0 0 1-1.637-1.771c-.383-.758-.575-1.645-.575-2.659 0-1.014.192-1.903.575-2.665a4.285 4.285 0 0 1 1.637-1.777c.703-.422 1.534-.633 2.493-.633.958 0 1.789.211 2.492.633a4.231 4.231 0 0 1 1.63 1.777c.388.762.582 1.651.582 2.665s-.194 1.901-.582 2.659a4.245 4.245 0 0 1-1.63 1.771c-.703.422-1.534.633-2.492.633zm.012-1.854c.52 0 .955-.143 1.304-.428.35-.29.61-.678.78-1.164a4.764 4.764 0 0 0 .262-1.623 4.78 4.78 0 0 0-.262-1.63c-.17-.49-.43-.88-.78-1.17-.349-.29-.784-.435-1.304-.435-.532 0-.976.145-1.329.435-.35.29-.612.68-.786 1.17a4.882 4.882 0 0 0-.256 1.63c0 .596.085 1.137.256 1.623.174.486.436.874.786 1.164.353.285.797.428 1.329.428zm14.416-5.561-2.109.23a1.694 1.694 0 0 0-.314-.601 1.554 1.554 0 0 0-.588-.454c-.247-.115-.549-.172-.907-.172-.482 0-.887.104-1.215.313-.324.209-.483.479-.479.812a.85.85 0 0 0 .313.696c.217.179.575.326 1.074.441l1.675.358c.929.201 1.619.518 2.071.953.456.434.686 1.003.69 1.706a2.67 2.67 0 0 1-.543 1.637c-.354.469-.846.835-1.477 1.099-.631.264-1.355.397-2.173.397-1.202 0-2.169-.252-2.902-.755-.733-.507-1.17-1.212-1.311-2.115l2.257-.218c.102.443.319.778.652 1.004.332.226.765.339 1.297.339.55 0 .991-.113 1.324-.339.336-.226.504-.505.504-.838a.869.869 0 0 0-.326-.696c-.213-.184-.545-.324-.997-.422l-1.674-.352c-.942-.196-1.639-.526-2.091-.991-.451-.468-.675-1.061-.671-1.777-.004-.605.16-1.129.492-1.572.337-.447.804-.793 1.4-1.036.601-.247 1.294-.37 2.078-.37 1.15 0 2.056.245 2.716.735.665.49 1.076 1.153 1.234 1.988zm6.402 7.415c-.959 0-1.79-.211-2.493-.633a4.3 4.3 0 0 1-1.637-1.771c-.383-.758-.575-1.645-.575-2.659 0-1.014.192-1.903.575-2.665a4.285 4.285 0 0 1 1.637-1.777c.703-.422 1.534-.633 2.493-.633.958 0 1.789.211 2.493.633a4.235 4.235 0 0 1 1.629 1.777c.388.762.582 1.651.582 2.665s-.194 1.901-.582 2.659a4.25 4.25 0 0 1-1.629 1.771c-.704.422-1.535.633-2.493.633zm.012-1.854c.52 0 .955-.143 1.304-.428.35-.29.61-.678.78-1.164a4.764 4.764 0 0 0 .262-1.623 4.78 4.78 0 0 0-.262-1.63c-.17-.49-.43-.88-.78-1.17-.349-.29-.784-.435-1.304-.435-.532 0-.975.145-1.329.435-.35.29-.612.68-.786 1.17a4.882 4.882 0 0 0-.256 1.63c0 .596.085 1.137.256 1.623.174.486.436.874.786 1.164.354.285.797.428 1.329.428zm11.629-8.156v1.789h-5.804v-1.789h5.804zm-4.353 9.818v-10.745c0-.661.137-1.21.409-1.649a2.596 2.596 0 0 1 1.112-.985 3.615 3.615 0 0 1 1.547-.326c.401 0 .757.032 1.068.096.311.064.541.122.69.173l-.46 1.789a4.4 4.4 0 0 0-.371-.089 2.243 2.243 0 0 0-.498-.051c-.431 0-.735.104-.914.313-.175.205-.263.499-.263.882v10.592h-2.32zm11.068-9.818v1.789h-5.644v-1.789h5.644zm-4.251-2.353h2.314v9.218c0 .311.047.549.141.716a.766.766 0 0 0 .383.332c.158.06.333.089.524.089.145 0 .277-.01.397-.032.123-.021.217-.04.281-.057l.39 1.809c-.124.043-.3.089-.531.141-.225.051-.502.08-.831.089-.579.017-1.101-.07-1.566-.262a2.434 2.434 0 0 1-1.105-.908c-.269-.409-.401-.92-.397-1.534v-9.601zm10.753 12.171v-13.091h4.909c1.006 0 1.85.187 2.532.562a3.753 3.753 0 0 1 1.553 1.547c.354.652.53 1.394.53 2.225 0 .839-.176 1.585-.53 2.237-.354.652-.876 1.165-1.566 1.54-.69.371-1.541.556-2.551.556h-3.253v-1.949h2.934c.588 0 1.069-.102 1.444-.307.375-.204.652-.486.831-.844a2.66 2.66 0 0 0 .275-1.233c0-.465-.091-.874-.275-1.228a1.87 1.87 0 0 0-.837-.824c-.375-.2-.859-.301-1.451-.301h-2.173v11.11h-2.372zm15.624.192c-.959 0-1.79-.211-2.493-.633a4.298 4.298 0 0 1-1.636-1.771c-.384-.758-.576-1.645-.576-2.659 0-1.014.192-1.903.576-2.665a4.283 4.283 0 0 1 1.636-1.777c.703-.422 1.534-.633 2.493-.633.959 0 1.79.211 2.493.633a4.244 4.244 0 0 1 1.63 1.777c.388.762.582 1.651.582 2.665s-.194 1.901-.582 2.659a4.258 4.258 0 0 1-1.63 1.771c-.703.422-1.534.633-2.493.633zm.013-1.854c.52 0 .954-.143 1.304-.428.349-.29.609-.678.78-1.164a4.788 4.788 0 0 0 .262-1.623c0-.601-.088-1.145-.262-1.63-.171-.49-.431-.88-.78-1.17-.35-.29-.784-.435-1.304-.435-.533 0-.976.145-1.33.435-.349.29-.611.68-.786 1.17a4.908 4.908 0 0 0-.256 1.63c0 .596.086 1.137.256 1.623.175.486.437.874.786 1.164.354.285.797.428 1.33.428zm8.401 1.662-2.775-9.818h2.359l1.726 6.903h.089l1.765-6.903h2.333l1.764 6.865h.096l1.7-6.865h2.365l-2.78 9.818h-2.41l-1.841-6.635h-.134l-1.841 6.635h-2.416zm17.103.192c-.984 0-1.834-.205-2.55-.614a4.146 4.146 0 0 1-1.643-1.752c-.384-.758-.575-1.651-.575-2.678 0-1.01.191-1.896.575-2.659a4.355 4.355 0 0 1 1.623-1.79c.695-.43 1.511-.645 2.449-.645.605 0 1.176.098 1.713.294a3.88 3.88 0 0 1 1.432.895c.417.404.745.92.984 1.547.239.622.358 1.363.358 2.224v.709h-8.048v-1.559h5.83a2.482 2.482 0 0 0-.288-1.183 2.085 2.085 0 0 0-.786-.824c-.332-.201-.72-.301-1.163-.301-.473 0-.889.115-1.247.345a2.382 2.382 0 0 0-.837.895c-.196.367-.296.77-.301 1.208v1.362c0 .571.105 1.061.314 1.47.208.405.5.716.875.933.375.213.814.32 1.317.32.337 0 .641-.047.914-.141.273-.098.509-.24.71-.428.2-.187.351-.42.453-.697l2.161.243a3.36 3.36 0 0 1-.78 1.496c-.379.422-.865.75-1.457.984-.593.23-1.27.346-2.033.346zm6.323-.192v-9.818h2.244v1.636h.102c.179-.567.486-1.004.921-1.31a2.533 2.533 0 0 1 1.502-.467c.128 0 .27.006.428.019.162.009.296.024.403.045v2.128a2.49 2.49 0 0 0-.467-.089 4.269 4.269 0 0 0-.607-.045c-.422 0-.801.092-1.138.275a2.013 2.013 0 0 0-.786.748c-.192.32-.288.688-.288 1.106v5.772h-2.314zm-135.46 22v-13.091h5.012c.946 0 1.732.149 2.358.447.631.294 1.102.697 1.413 1.208a3.25 3.25 0 0 1 .473 1.739c0 .533-.102.989-.307 1.368-.204.375-.479.68-.825.914-.345.234-.73.403-1.156.505v.128c.464.025.909.168 1.335.428a2.97 2.97 0 0 1 1.055 1.087c.273.468.409 1.035.409 1.7 0 .678-.164 1.287-.492 1.828-.328.537-.822.961-1.483 1.272-.66.311-1.491.467-2.493.467h-5.299zm2.372-1.982h2.55c.861 0 1.481-.164 1.86-.492.384-.332.575-.758.575-1.278a1.956 1.956 0 0 0-1.105-1.79c-.354-.183-.776-.275-1.266-.275h-2.614v3.835zm0-5.542h2.346c.409 0 .777-.074 1.105-.223.328-.154.586-.369.774-.646.192-.281.287-.614.287-.997 0-.507-.179-.925-.537-1.253-.353-.328-.879-.492-1.578-.492h-2.397v3.611zm11.83-5.567v13.091h-2.372v-13.091h2.372zm9.756 13.289a4.109 4.109 0 0 1-1.682-.332 2.749 2.749 0 0 1-1.176-.998c-.285-.439-.428-.98-.428-1.623 0-.554.102-1.012.307-1.374.204-.363.484-.652.837-.87a4.237 4.237 0 0 1 1.196-.492 9.68 9.68 0 0 1 1.387-.249c.575-.06 1.042-.113 1.399-.16.358-.051.618-.128.78-.23.167-.107.25-.271.25-.492v-.039c0-.481-.143-.854-.429-1.118-.285-.265-.696-.397-1.233-.397-.567 0-1.017.124-1.349.371-.328.247-.55.539-.665.876l-2.16-.307c.17-.597.451-1.095.843-1.496a3.665 3.665 0 0 1 1.439-.907 5.486 5.486 0 0 1 1.879-.307c.473 0 .944.055 1.413.166.468.111.897.294 1.284.55.388.251.699.594.934 1.029.238.434.358.978.358 1.63v6.571h-2.225v-1.349h-.077c-.14.273-.338.528-.594.767a2.866 2.866 0 0 1-.952.569c-.38.141-.825.211-1.336.211zm.6-1.7c.465 0 .868-.092 1.209-.275a2.04 2.04 0 0 0 .786-.742c.187-.307.281-.641.281-1.003v-1.157a1.094 1.094 0 0 1-.371.166c-.17.051-.362.096-.575.134-.213.039-.424.073-.633.102l-.543.077a4.082 4.082 0 0 0-.927.23 1.544 1.544 0 0 0-.646.448c-.157.187-.236.43-.236.728 0 .427.155.748.467.966.311.217.707.326 1.188.326zm15.329-8.316-3.497 9.818h-2.557l-3.496-9.818h2.467l2.257 7.293h.102l2.263-7.293h2.461zm4.145 10.016a4.104 4.104 0 0 1-1.681-.332 2.737 2.737 0 0 1-1.176-.998c-.286-.439-.429-.98-.429-1.623 0-.554.103-1.012.307-1.374.205-.363.484-.652.837-.87a4.25 4.25 0 0 1 1.196-.492c.447-.115.91-.198 1.387-.249.575-.06 1.042-.113 1.4-.16.358-.051.618-.128.78-.23.166-.107.249-.271.249-.492v-.039c0-.481-.143-.854-.428-1.118-.286-.265-.697-.397-1.234-.397-.567 0-1.016.124-1.349.371-.328.247-.55.539-.665.876l-2.16-.307c.17-.597.452-1.095.844-1.496a3.661 3.661 0 0 1 1.438-.907 5.49 5.49 0 0 1 1.879-.307c.473 0 .944.055 1.413.166.469.111.897.294 1.285.55.387.251.698.594.933 1.029.238.434.358.978.358 1.63v6.571h-2.225v-1.349h-.076a2.83 2.83 0 0 1-.595.767 2.866 2.866 0 0 1-.952.569c-.38.141-.825.211-1.336.211zm.601-1.7c.464 0 .867-.092 1.208-.275.341-.188.603-.435.786-.742.187-.307.281-.641.281-1.003v-1.157a1.094 1.094 0 0 1-.371.166c-.17.051-.362.096-.575.134-.213.039-.424.073-.633.102l-.543.077a4.082 4.082 0 0 0-.927.23 1.534 1.534 0 0 0-.645.448c-.158.187-.237.43-.237.728 0 .427.156.748.467.966.311.217.707.326 1.189.326zm6.909 1.502v-9.818h2.314v9.818h-2.314zm1.164-11.212c-.367 0-.682-.121-.946-.364a1.177 1.177 0 0 1-.397-.889c0-.349.133-.645.397-.888.264-.247.579-.371.946-.371.371 0 .686.124.946.371.264.243.396.539.396.888 0 .345-.132.642-.396.889-.26.243-.575.364-.946.364zm5.844-1.879v13.091h-2.314v-13.091h2.314zm5.204 13.289a4.107 4.107 0 0 1-1.681-.332 2.749 2.749 0 0 1-1.176-.998c-.285-.439-.428-.98-.428-1.623 0-.554.102-1.012.307-1.374.204-.363.483-.652.837-.87a4.243 4.243 0 0 1 1.195-.492c.448-.115.91-.198 1.388-.249.575-.06 1.041-.113 1.399-.16.358-.051.618-.128.78-.23.166-.107.249-.271.249-.492v-.039c0-.481-.142-.854-.428-1.118-.285-.265-.697-.397-1.233-.397-.567 0-1.017.124-1.349.371-.328.247-.55.539-.665.876l-2.16-.307c.17-.597.451-1.095.843-1.496a3.665 3.665 0 0 1 1.439-.907 5.486 5.486 0 0 1 1.879-.307 6.1 6.1 0 0 1 1.412.166c.469.111.897.294 1.285.55.388.251.699.594.933 1.029.239.434.358.978.358 1.63v6.571h-2.224v-1.349h-.077c-.14.273-.339.528-.594.767a2.871 2.871 0 0 1-.953.569c-.379.141-.824.211-1.336.211zm.601-1.7c.465 0 .867-.092 1.208-.275.341-.188.603-.435.787-.742.187-.307.281-.641.281-1.003v-1.157a1.103 1.103 0 0 1-.371.166c-.17.051-.362.096-.575.134-.213.039-.424.073-.633.102l-.543.077a4.082 4.082 0 0 0-.927.23 1.544 1.544 0 0 0-.646.448c-.157.187-.236.43-.236.728 0 .427.155.748.466.966.311.217.708.326 1.189.326zm7.012 1.502v-13.091h2.314v4.896h.096c.12-.238.288-.492.505-.76.217-.273.512-.505.882-.697.371-.196.844-.294 1.419-.294.759 0 1.443.194 2.052.581.614.384 1.1.953 1.458 1.707.362.75.543 1.671.543 2.761 0 1.079-.177 1.995-.531 2.749-.353.754-.835 1.33-1.444 1.726a3.72 3.72 0 0 1-2.071.594c-.563 0-1.029-.093-1.4-.281a2.842 2.842 0 0 1-.895-.677 4.398 4.398 0 0 1-.518-.761h-.134v1.547h-2.276zm2.27-4.909c0 .635.089 1.191.268 1.668.183.477.445.85.786 1.119.345.264.763.396 1.253.396.511 0 .94-.136 1.285-.409.345-.277.605-.654.78-1.132.179-.481.268-1.029.268-1.642 0-.61-.087-1.151-.262-1.624-.175-.473-.435-.844-.78-1.112-.345-.269-.775-.403-1.291-.403-.494 0-.914.13-1.259.39-.345.26-.607.624-.786 1.093-.175.469-.262 1.021-.262 1.656zm11.28-8.182v13.091h-2.314v-13.091h2.314zm6.726 13.283c-.984 0-1.835-.205-2.55-.614a4.146 4.146 0 0 1-1.643-1.752c-.384-.758-.576-1.651-.576-2.678 0-1.01.192-1.896.576-2.659a4.355 4.355 0 0 1 1.623-1.79c.695-.43 1.511-.645 2.448-.645.606 0 1.177.098 1.714.294.541.192 1.018.49 1.431.895.418.404.746.92.985 1.547.238.622.358 1.363.358 2.224v.709h-8.048v-1.559h5.83a2.494 2.494 0 0 0-.288-1.183 2.091 2.091 0 0 0-.786-.824c-.333-.201-.72-.301-1.164-.301-.473 0-.888.115-1.246.345a2.382 2.382 0 0 0-.837.895c-.196.367-.297.77-.301 1.208v1.362c0 .571.105 1.061.313 1.47.209.405.501.716.876.933.375.213.814.32 1.317.32.337 0 .641-.047.914-.141.273-.098.509-.24.709-.428a1.77 1.77 0 0 0 .454-.697l2.161.243a3.37 3.37 0 0 1-.78 1.496c-.379.422-.865.75-1.457.984-.593.23-1.27.346-2.033.346zm15.761-10.01v1.789h-5.804v-1.789h5.804zm-4.353 9.818v-10.745c0-.661.137-1.21.409-1.649a2.596 2.596 0 0 1 1.112-.985 3.615 3.615 0 0 1 1.547-.326c.401 0 .757.032 1.068.096.311.064.541.122.69.173l-.46 1.789a4.4 4.4 0 0 0-.371-.089 2.243 2.243 0 0 0-.498-.051c-.431 0-.735.104-.914.313-.175.205-.263.499-.263.882v10.592h-2.32zm10.079.192c-.959 0-1.79-.211-2.493-.633a4.291 4.291 0 0 1-1.636-1.771c-.384-.758-.576-1.645-.576-2.659 0-1.014.192-1.903.576-2.665a4.277 4.277 0 0 1 1.636-1.777c.703-.422 1.534-.633 2.493-.633.959 0 1.79.211 2.493.633a4.244 4.244 0 0 1 1.63 1.777c.387.762.581 1.651.581 2.665s-.194 1.901-.581 2.659a4.258 4.258 0 0 1-1.63 1.771c-.703.422-1.534.633-2.493.633zm.013-1.854c.519 0 .954-.143 1.304-.428.349-.29.609-.678.779-1.164a4.764 4.764 0 0 0 .262-1.623 4.78 4.78 0 0 0-.262-1.63c-.17-.49-.43-.88-.779-1.17-.35-.29-.785-.435-1.304-.435-.533 0-.976.145-1.33.435-.349.29-.611.68-.786 1.17a4.882 4.882 0 0 0-.256 1.63c0 .596.085 1.137.256 1.623.175.486.437.874.786 1.164.354.285.797.428 1.33.428zm6.655 1.662v-9.818h2.244v1.636h.102c.179-.567.486-1.004.921-1.31a2.533 2.533 0 0 1 1.502-.467c.128 0 .27.006.428.019.162.009.296.024.403.045v2.128a2.49 2.49 0 0 0-.467-.089 4.269 4.269 0 0 0-.607-.045c-.422 0-.801.092-1.138.275a2.013 2.013 0 0 0-.786.748c-.192.32-.288.688-.288 1.106v5.772h-2.314zm14.427.198a4.107 4.107 0 0 1-1.681-.332 2.749 2.749 0 0 1-1.176-.998c-.286-.439-.428-.98-.428-1.623 0-.554.102-1.012.306-1.374.205-.363.484-.652.838-.87a4.243 4.243 0 0 1 1.195-.492 9.73 9.73 0 0 1 1.387-.249c.575-.06 1.042-.113 1.4-.16.358-.051.618-.128.78-.23.166-.107.249-.271.249-.492v-.039c0-.481-.143-.854-.428-1.118-.286-.265-.697-.397-1.234-.397-.567 0-1.016.124-1.348.371-.329.247-.55.539-.665.876l-2.161-.307c.171-.597.452-1.095.844-1.496a3.661 3.661 0 0 1 1.438-.907 5.49 5.49 0 0 1 1.879-.307c.473 0 .944.055 1.413.166.469.111.897.294 1.285.55.388.251.699.594.933 1.029.239.434.358.978.358 1.63v6.571h-2.224v-1.349h-.077a2.845 2.845 0 0 1-.594.767 2.871 2.871 0 0 1-.953.569c-.379.141-.824.211-1.336.211zm.601-1.7c.464 0 .867-.092 1.208-.275.341-.188.603-.435.786-.742.188-.307.282-.641.282-1.003v-1.157a1.103 1.103 0 0 1-.371.166 5.228 5.228 0 0 1-.575.134c-.214.039-.424.073-.633.102l-.544.077a4.06 4.06 0 0 0-.926.23 1.544 1.544 0 0 0-.646.448c-.158.187-.237.43-.237.728 0 .427.156.748.467.966.311.217.707.326 1.189.326zm9.224-11.589v13.091h-2.314v-13.091h2.314zm4.693 0v13.091h-2.314v-13.091h2.314zM520.807 31.851v-13.09h4.909c1.006 0 1.849.187 2.531.562.686.375 1.204.89 1.553 1.546.354.652.531 1.394.531 2.225 0 .84-.177 1.585-.531 2.237-.353.652-.875 1.166-1.566 1.54-.69.371-1.54.557-2.55.557h-3.254v-1.95h2.934c.588 0 1.07-.102 1.445-.307.375-.204.652-.485.831-.843.183-.358.275-.77.275-1.234 0-.465-.092-.874-.275-1.227a1.868 1.868 0 0 0-.837-.825c-.375-.2-.859-.3-1.451-.3h-2.174v11.11h-2.371zm11.482 0v-9.818h2.243v1.636h.102c.179-.567.486-1.003.921-1.31a2.532 2.532 0 0 1 1.502-.467c.128 0 .271.007.428.02.162.008.296.023.403.044v2.129a2.441 2.441 0 0 0-.467-.09 4.286 4.286 0 0 0-.607-.044c-.422 0-.801.091-1.138.274a2.014 2.014 0 0 0-.786.748c-.192.32-.288.688-.288 1.106v5.772h-2.313zm11.015.192c-.959 0-1.79-.211-2.493-.633a4.301 4.301 0 0 1-1.637-1.77c-.383-.76-.575-1.646-.575-2.66 0-1.014.192-1.902.575-2.665a4.291 4.291 0 0 1 1.637-1.777c.703-.422 1.534-.633 2.493-.633.958 0 1.789.211 2.493.633a4.241 4.241 0 0 1 1.629 1.777c.388.763.582 1.651.582 2.665s-.194 1.9-.582 2.66a4.25 4.25 0 0 1-1.629 1.77c-.704.422-1.535.633-2.493.633zm.012-1.854c.52 0 .955-.143 1.304-.428.35-.29.61-.678.78-1.163a4.764 4.764 0 0 0 .262-1.624c0-.6-.087-1.144-.262-1.63-.17-.49-.43-.88-.78-1.17-.349-.29-.784-.434-1.304-.434-.532 0-.975.145-1.329.434-.35.29-.612.68-.786 1.17a4.886 4.886 0 0 0-.256 1.63c0 .596.085 1.138.256 1.623.174.486.436.874.786 1.164.354.285.797.428 1.329.428zm6.656-8.156h2.314v10.38c0 .708-.134 1.292-.403 1.752a2.47 2.47 0 0 1-1.163 1.03c-.507.225-1.123.338-1.847.338-.086 0-.164-.002-.237-.007a4.7 4.7 0 0 1-.236-.006v-1.886c.064.005.121.007.172.007.051.004.105.006.16.006.443 0 .761-.108.952-.326.192-.213.288-.526.288-.94V22.034zm1.151-1.394c-.371 0-.689-.121-.953-.364a1.183 1.183 0 0 1-.39-.888c0-.35.13-.646.39-.889.264-.247.582-.37.953-.37.366 0 .679.123.939.37.265.243.397.54.397.889 0 .345-.132.64-.397.888-.26.243-.573.364-.939.364zm7.889 11.404c-.984 0-1.834-.205-2.55-.614a4.152 4.152 0 0 1-1.643-1.751c-.384-.759-.575-1.652-.575-2.678 0-1.01.191-1.897.575-2.66a4.355 4.355 0 0 1 1.623-1.79c.695-.43 1.511-.645 2.449-.645.605 0 1.176.098 1.713.294.541.192 1.018.49 1.432.895.417.405.745.92.984 1.547.239.622.358 1.364.358 2.224v.71h-8.048v-1.56h5.83a2.48 2.48 0 0 0-.288-1.182 2.085 2.085 0 0 0-.786-.825c-.332-.2-.72-.3-1.163-.3-.473 0-.889.115-1.247.345a2.374 2.374 0 0 0-.837.895c-.196.366-.296.769-.301 1.208v1.361c0 .571.105 1.061.314 1.47.208.405.5.716.875.934.375.213.814.32 1.317.32a2.8 2.8 0 0 0 .914-.141c.273-.098.509-.241.71-.429.2-.187.351-.42.453-.696l2.161.243a3.36 3.36 0 0 1-.78 1.495c-.379.422-.865.75-1.457.985-.593.23-1.27.345-2.033.345zm10.606 0c-.98 0-1.822-.215-2.525-.646a4.308 4.308 0 0 1-1.617-1.783c-.375-.763-.562-1.64-.562-2.634 0-.997.191-1.877.575-2.64a4.295 4.295 0 0 1 1.623-1.79c.704-.43 1.534-.645 2.493-.645.797 0 1.502.147 2.116.441.618.29 1.11.701 1.477 1.234.366.528.575 1.146.626 1.854h-2.212a2.11 2.11 0 0 0-.639-1.183c-.332-.32-.778-.48-1.336-.48-.473 0-.888.128-1.246.384-.358.252-.637.614-.838 1.087-.196.473-.294 1.04-.294 1.7 0 .669.098 1.244.294 1.726.196.477.471.846.825 1.106a2.11 2.11 0 0 0 1.259.383c.341 0 .646-.064.914-.192.273-.132.501-.321.684-.569.184-.247.309-.547.377-.9h2.212a3.85 3.85 0 0 1-.614 1.847 3.63 3.63 0 0 1-1.444 1.252c-.61.299-1.325.448-2.148.448zm11.009-10.01v1.79h-5.644v-1.79h5.644zm-4.251-2.352h2.314v9.217c0 .311.047.55.141.716a.756.756 0 0 0 .383.332c.158.06.333.09.524.09.145 0 .277-.01.397-.032.123-.021.217-.04.281-.058l.39 1.81c-.124.042-.301.089-.531.14a4.34 4.34 0 0 1-.831.09 3.775 3.775 0 0 1-1.566-.263 2.44 2.44 0 0 1-1.106-.907c-.268-.41-.4-.92-.396-1.534V19.68zm21.958 3.496h-2.39a2.975 2.975 0 0 0-.377-1.042 2.826 2.826 0 0 0-.684-.78 2.854 2.854 0 0 0-.934-.48 3.638 3.638 0 0 0-1.118-.165c-.712 0-1.343.179-1.892.537-.55.353-.98.873-1.291 1.56-.312.681-.467 1.514-.467 2.499 0 1.001.155 1.845.467 2.53.315.683.745 1.198 1.291 1.548.549.345 1.178.517 1.885.517.392 0 .759-.05 1.1-.153.345-.106.654-.262.927-.466a2.855 2.855 0 0 0 1.093-1.777l2.39.012a5.143 5.143 0 0 1-.581 1.752 5.168 5.168 0 0 1-1.157 1.444 5.349 5.349 0 0 1-1.675.972c-.639.23-1.349.345-2.129.345-1.15 0-2.177-.266-3.081-.799-.903-.533-1.615-1.302-2.134-2.308-.52-1.005-.78-2.211-.78-3.617 0-1.41.262-2.617.786-3.618.524-1.006 1.238-1.775 2.141-2.308.904-.532 1.926-.799 3.068-.799.729 0 1.407.102 2.033.307a5.203 5.203 0 0 1 1.675.901c.49.392.893.874 1.208 1.445.32.567.528 1.214.626 1.943zm2.07 8.674v-9.818h2.243v1.636h.103c.179-.567.485-1.003.92-1.31.439-.311.94-.467 1.502-.467.128 0 .271.007.428.02.162.008.297.023.403.044v2.129a2.427 2.427 0 0 0-.466-.09 4.31 4.31 0 0 0-.608-.044c-.422 0-.801.091-1.137.274a2.01 2.01 0 0 0-.787.748c-.191.32-.287.688-.287 1.106v5.772h-2.314zm11.079.192c-.985 0-1.835-.205-2.551-.614a4.155 4.155 0 0 1-1.642-1.751c-.384-.759-.576-1.652-.576-2.678 0-1.01.192-1.897.576-2.66a4.349 4.349 0 0 1 1.623-1.79c.695-.43 1.511-.645 2.448-.645.605 0 1.176.098 1.713.294.542.192 1.019.49 1.432.895.418.405.746.92.985 1.547.238.622.358 1.364.358 2.224v.71h-8.048v-1.56h5.83a2.504 2.504 0 0 0-.288-1.182 2.1 2.1 0 0 0-.786-.825c-.333-.2-.721-.3-1.164-.3-.473 0-.888.115-1.246.345a2.385 2.385 0 0 0-.838.895c-.196.366-.296.769-.3 1.208v1.361c0 .571.104 1.061.313 1.47.209.405.501.716.876.934.375.213.814.32 1.317.32.336 0 .641-.048.914-.141.273-.098.509-.241.709-.429.201-.187.352-.42.454-.696l2.161.243a3.38 3.38 0 0 1-.78 1.495c-.379.422-.865.75-1.458.985-.592.23-1.269.345-2.032.345zm14.083-7.415-2.109.23a1.689 1.689 0 0 0-.314-.6 1.541 1.541 0 0 0-.588-.454c-.247-.116-.549-.173-.907-.173-.482 0-.887.104-1.215.313-.324.209-.483.48-.479.812a.85.85 0 0 0 .313.697c.217.179.575.326 1.074.44l1.675.359c.929.2 1.619.517 2.071.952.456.435.686 1.004.69 1.707a2.668 2.668 0 0 1-.543 1.636c-.354.469-.846.835-1.477 1.1-.631.264-1.355.396-2.173.396-1.202 0-2.169-.252-2.902-.754-.733-.508-1.17-1.213-1.311-2.116l2.257-.217c.102.443.319.777.652 1.003.332.226.765.339 1.297.339.55 0 .991-.113 1.324-.339.336-.226.505-.505.505-.837a.873.873 0 0 0-.326-.697c-.214-.183-.546-.324-.998-.422l-1.674-.352c-.942-.195-1.639-.526-2.091-.99-.451-.469-.675-1.061-.671-1.777-.004-.605.16-1.13.492-1.573.337-.447.804-.792 1.4-1.035.601-.247 1.294-.37 2.078-.37 1.15 0 2.056.244 2.716.734.665.49 1.076 1.153 1.234 1.988zm6.402 7.415c-.98 0-1.822-.215-2.525-.646a4.308 4.308 0 0 1-1.617-1.783c-.375-.763-.563-1.64-.563-2.634 0-.997.192-1.877.575-2.64a4.298 4.298 0 0 1 1.624-1.79c.703-.43 1.534-.645 2.493-.645.797 0 1.502.147 2.116.441a3.61 3.61 0 0 1 1.476 1.234c.367.528.576 1.146.627 1.854h-2.212a2.115 2.115 0 0 0-.639-1.183c-.333-.32-.778-.48-1.336-.48a2.09 2.09 0 0 0-1.247.384c-.358.252-.637.614-.837 1.087-.196.473-.294 1.04-.294 1.7 0 .669.098 1.244.294 1.726.196.477.471.846.825 1.106.358.255.777.383 1.259.383a2.1 2.1 0 0 0 .914-.192c.273-.132.501-.321.684-.569.183-.247.309-.547.377-.9h2.212a3.86 3.86 0 0 1-.614 1.847c-.354.532-.835.95-1.445 1.252-.609.299-1.325.448-2.147.448zm10.452 0c-.984 0-1.834-.205-2.55-.614a4.158 4.158 0 0 1-1.643-1.751c-.383-.759-.575-1.652-.575-2.678 0-1.01.192-1.897.575-2.66a4.35 4.35 0 0 1 1.624-1.79c.694-.43 1.51-.645 2.448-.645.605 0 1.176.098 1.713.294.541.192 1.018.49 1.432.895.417.405.745.92.984 1.547.239.622.358 1.364.358 2.224v.71h-8.048v-1.56h5.83a2.48 2.48 0 0 0-.288-1.182 2.085 2.085 0 0 0-.786-.825c-.332-.2-.72-.3-1.163-.3-.473 0-.889.115-1.247.345a2.374 2.374 0 0 0-.837.895c-.196.366-.296.769-.3 1.208v1.361c0 .571.104 1.061.313 1.47.209.405.5.716.875.934.375.213.814.32 1.317.32.337 0 .642-.048.914-.141.273-.098.51-.241.71-.429.2-.187.351-.42.454-.696l2.16.243a3.36 3.36 0 0 1-.78 1.495c-.379.422-.865.75-1.457.985-.592.23-1.27.345-2.033.345zm8.638-5.945v5.753h-2.314v-9.818h2.211V23.7h.115c.226-.55.586-.986 1.081-1.31.498-.324 1.114-.486 1.847-.486.677 0 1.268.145 1.77.435.508.29.9.71 1.177 1.259.281.55.419 1.217.415 2v6.252h-2.314v-5.893c0-.657-.17-1.17-.511-1.54-.337-.372-.803-.557-1.4-.557-.405 0-.765.09-1.08.268a1.862 1.862 0 0 0-.735.761c-.175.332-.262.735-.262 1.208zm13.557-4.065v1.79h-5.644v-1.79h5.644zm-4.251-2.352h2.314v9.217c0 .311.047.55.141.716a.76.76 0 0 0 .383.332c.158.06.333.09.525.09.144 0 .277-.01.396-.032.123-.021.217-.04.281-.058l.39 1.81c-.124.042-.3.089-.531.14a4.319 4.319 0 0 1-.83.09c-.58.016-1.102-.071-1.567-.263a2.432 2.432 0 0 1-1.105-.907c-.269-.41-.401-.92-.397-1.534V19.68zM520.705 53.85v-9.818h2.243v1.636h.102c.179-.566.486-1.003.921-1.31.439-.311.94-.467 1.502-.467.128 0 .271.007.428.02.162.008.296.023.403.044v2.129a2.441 2.441 0 0 0-.467-.09 4.286 4.286 0 0 0-.607-.044c-.422 0-.801.091-1.138.274a2.014 2.014 0 0 0-.786.748c-.192.32-.288.688-.288 1.106v5.772h-2.313zm11.079.192c-.985 0-1.835-.205-2.551-.614a4.158 4.158 0 0 1-1.643-1.751c-.383-.759-.575-1.651-.575-2.678 0-1.01.192-1.897.575-2.66a4.35 4.35 0 0 1 1.624-1.79c.695-.43 1.511-.645 2.448-.645.605 0 1.176.098 1.713.294a3.87 3.87 0 0 1 1.432.895c.418.405.746.92.984 1.547.239.622.358 1.364.358 2.224v.71h-8.047v-1.56h5.829a2.492 2.492 0 0 0-.287-1.182 2.095 2.095 0 0 0-.787-.825c-.332-.2-.72-.3-1.163-.3-.473 0-.888.115-1.246.345a2.385 2.385 0 0 0-.838.895c-.196.366-.296.769-.3 1.208v1.361c0 .571.104 1.061.313 1.47.209.405.501.716.876.934.375.213.814.32 1.317.32.336 0 .641-.048.914-.141.272-.098.509-.241.709-.429.2-.187.352-.42.454-.696l2.16.243a3.368 3.368 0 0 1-.779 1.495c-.38.422-.865.75-1.458.985-.592.23-1.27.345-2.032.345zm8.637-5.945v5.753h-2.314v-9.818h2.212V45.7h.115c.225-.55.586-.986 1.08-1.31.498-.324 1.114-.486 1.847-.486.678 0 1.268.145 1.771.435.507.29.899.71 1.176 1.259.281.55.42 1.217.415 2v6.252h-2.314v-5.893c0-.657-.17-1.17-.511-1.54-.337-.372-.803-.557-1.4-.557-.405 0-.765.09-1.08.269a1.862 1.862 0 0 0-.735.76c-.175.332-.262.735-.262 1.208zm11.48 5.951c-.622 0-1.183-.11-1.681-.332a2.734 2.734 0 0 1-1.176-.997c-.286-.44-.429-.98-.429-1.624 0-.554.103-1.012.307-1.374.205-.362.484-.652.838-.87a4.216 4.216 0 0 1 1.195-.492c.447-.115.91-.198 1.387-.249a54.46 54.46 0 0 0 1.4-.16c.358-.05.618-.128.78-.23.166-.106.249-.27.249-.492v-.038c0-.482-.143-.855-.428-1.119-.286-.264-.697-.396-1.234-.396-.567 0-1.016.123-1.349.37-.328.248-.549.54-.664.876l-2.161-.307c.17-.596.452-1.095.844-1.495a3.668 3.668 0 0 1 1.438-.908 5.5 5.5 0 0 1 1.879-.307c.473 0 .944.055 1.413.166.469.111.897.294 1.285.55.387.251.699.594.933 1.03.239.434.358.977.358 1.63v6.57h-2.225v-1.349h-.076a2.828 2.828 0 0 1-.595.767 2.858 2.858 0 0 1-.952.57c-.379.14-.825.21-1.336.21zm.601-1.7c.464 0 .867-.092 1.208-.275a2.03 2.03 0 0 0 .786-.741c.188-.307.281-.642.281-1.004v-1.157c-.072.06-.196.115-.37.166a5.293 5.293 0 0 1-.576.134c-.213.039-.424.073-.632.103l-.544.076a4.05 4.05 0 0 0-.927.23 1.537 1.537 0 0 0-.645.448c-.158.188-.237.43-.237.729 0 .426.156.748.467.965.311.217.707.326 1.189.326zm6.91 1.502v-9.818h2.211V45.7h.115a2.608 2.608 0 0 1 1.017-1.316c.473-.32 1.037-.48 1.694-.48.664 0 1.225.162 1.681.486.46.32.784.756.971 1.31h.102c.218-.545.584-.98 1.1-1.304.52-.328 1.136-.492 1.847-.492.904 0 1.641.286 2.212.857.571.57.856 1.404.856 2.499v6.59h-2.32V47.62c0-.61-.162-1.055-.486-1.336-.324-.286-.72-.428-1.189-.428-.558 0-.995.174-1.31.524-.311.345-.467.794-.467 1.349v6.123h-2.269v-6.328c0-.507-.153-.912-.46-1.215-.303-.302-.699-.453-1.189-.453-.332 0-.635.085-.908.255a1.79 1.79 0 0 0-.652.71 2.215 2.215 0 0 0-.243 1.06v5.971h-2.313zm20.5.192c-.984 0-1.834-.205-2.55-.614a4.158 4.158 0 0 1-1.643-1.751c-.383-.759-.575-1.651-.575-2.678 0-1.01.192-1.897.575-2.66a4.35 4.35 0 0 1 1.624-1.79c.694-.43 1.511-.645 2.448-.645.605 0 1.176.098 1.713.294a3.87 3.87 0 0 1 1.432.895c.418.405.746.92.984 1.547.239.622.358 1.364.358 2.224v.71h-8.047v-1.56h5.829a2.492 2.492 0 0 0-.287-1.182 2.095 2.095 0 0 0-.787-.825c-.332-.2-.72-.3-1.163-.3a2.25 2.25 0 0 0-1.246.345 2.377 2.377 0 0 0-.838.895c-.196.366-.296.769-.3 1.208v1.361c0 .571.104 1.061.313 1.47.209.405.501.716.876.934.375.213.814.32 1.316.32.337 0 .642-.048.914-.141.273-.098.51-.241.71-.429.2-.187.352-.42.454-.696l2.16.243a3.368 3.368 0 0 1-.779 1.495c-.38.422-.866.75-1.458.985-.592.23-1.27.345-2.033.345zm9.967-.02a3.717 3.717 0 0 1-2.071-.594c-.609-.396-1.091-.971-1.444-1.726-.354-.754-.531-1.67-.531-2.748 0-1.091.179-2.012.537-2.762.362-.754.85-1.323 1.464-1.706a3.759 3.759 0 0 1 2.052-.582c.575 0 1.048.098 1.419.294.37.192.664.424.882.697.217.268.385.522.505.76h.096V40.76h2.32v13.091h-2.276v-1.547h-.14c-.12.239-.292.492-.518.76-.226.265-.524.49-.895.678-.371.188-.837.282-1.4.282zm.646-1.898c.49 0 .908-.132 1.253-.396.345-.269.607-.641.786-1.119.179-.477.268-1.033.268-1.668s-.089-1.187-.268-1.656c-.175-.468-.435-.833-.78-1.093-.341-.26-.761-.39-1.259-.39-.516 0-.946.135-1.291.403-.346.269-.605.64-.78 1.112-.175.473-.262 1.015-.262 1.624 0 .614.087 1.161.262 1.643.179.477.441.854.786 1.131.349.273.778.41 1.285.41zm14.339 1.924c-.622 0-1.183-.11-1.681-.332a2.734 2.734 0 0 1-1.176-.997c-.286-.44-.429-.98-.429-1.624 0-.554.103-1.012.307-1.374.205-.362.484-.652.837-.87a4.235 4.235 0 0 1 1.196-.492c.447-.115.91-.198 1.387-.249a54.46 54.46 0 0 0 1.4-.16c.358-.05.618-.128.78-.23.166-.106.249-.27.249-.492v-.038c0-.482-.143-.855-.428-1.119-.286-.264-.697-.396-1.234-.396-.567 0-1.016.123-1.349.37-.328.248-.55.54-.665.876l-2.16-.307c.17-.596.452-1.095.844-1.495a3.668 3.668 0 0 1 1.438-.908 5.5 5.5 0 0 1 1.879-.307c.473 0 .944.055 1.413.166.469.111.897.294 1.285.55.387.251.698.594.933 1.03.238.434.358.977.358 1.63v6.57h-2.225v-1.349h-.076a2.828 2.828 0 0 1-.595.767 2.858 2.858 0 0 1-.952.57c-.38.14-.825.21-1.336.21zm.601-1.7c.464 0 .867-.092 1.208-.275a2.03 2.03 0 0 0 .786-.741c.187-.307.281-.642.281-1.004v-1.157c-.072.06-.196.115-.371.166-.17.051-.362.096-.575.134-.213.039-.424.073-.633.103l-.543.076a4.05 4.05 0 0 0-.927.23 1.537 1.537 0 0 0-.645.448c-.158.188-.237.43-.237.729 0 .426.156.748.467.965.311.217.707.326 1.189.326zm14.669-5.72-2.109.23a1.702 1.702 0 0 0-.313-.602 1.557 1.557 0 0 0-.588-.453c-.247-.116-.55-.173-.908-.173-.481 0-.886.104-1.214.313-.324.209-.484.48-.48.812a.85.85 0 0 0 .313.697c.218.179.576.326 1.074.44l1.675.359c.929.2 1.619.517 2.071.952.456.435.686 1.004.69 1.707a2.668 2.668 0 0 1-.543 1.636c-.354.469-.846.835-1.477 1.1-.63.264-1.355.396-2.173.396-1.202 0-2.169-.252-2.902-.754-.733-.508-1.17-1.213-1.31-2.116l2.256-.218c.102.444.32.778.652 1.004.333.226.765.339 1.298.339.549 0 .991-.113 1.323-.339.337-.226.505-.505.505-.837a.873.873 0 0 0-.326-.697c-.213-.183-.546-.324-.997-.422l-1.675-.352c-.942-.196-1.638-.526-2.09-.99-.452-.469-.676-1.061-.671-1.777-.005-.605.159-1.13.492-1.573.337-.447.803-.792 1.4-1.035.601-.247 1.293-.37 2.077-.37 1.151 0 2.056.244 2.717.734.665.49 1.076 1.153 1.233 1.988zM520.807 75.85v-13.09h4.909c1.006 0 1.849.187 2.531.562.686.375 1.204.89 1.553 1.547.354.651.531 1.393.531 2.224 0 .84-.177 1.585-.531 2.237-.353.652-.875 1.166-1.566 1.54-.69.371-1.54.557-2.55.557h-3.254v-1.95h2.934c.588 0 1.07-.102 1.445-.307.375-.204.652-.485.831-.843.183-.358.275-.77.275-1.234 0-.465-.092-.874-.275-1.227a1.868 1.868 0 0 0-.837-.825c-.375-.2-.859-.3-1.451-.3h-2.174v11.11h-2.371zm15.624.192c-.959 0-1.79-.211-2.493-.633a4.301 4.301 0 0 1-1.637-1.77c-.383-.76-.575-1.645-.575-2.66 0-1.014.192-1.902.575-2.665a4.291 4.291 0 0 1 1.637-1.777c.703-.422 1.534-.633 2.493-.633.958 0 1.789.211 2.492.633a4.237 4.237 0 0 1 1.63 1.777c.388.763.582 1.651.582 2.665s-.194 1.9-.582 2.66a4.246 4.246 0 0 1-1.63 1.77c-.703.422-1.534.633-2.492.633zm.012-1.854c.52 0 .955-.143 1.304-.428.35-.29.61-.678.78-1.163a4.764 4.764 0 0 0 .262-1.624c0-.6-.087-1.144-.262-1.63-.17-.49-.43-.88-.78-1.17-.349-.29-.784-.434-1.304-.434-.532 0-.975.145-1.329.434-.35.29-.612.68-.786 1.17a4.886 4.886 0 0 0-.256 1.63c0 .596.085 1.138.256 1.623.174.486.436.874.786 1.164.354.285.797.428 1.329.428zm8.401 1.662-2.774-9.818h2.359l1.725 6.903h.09l1.764-6.903h2.333l1.764 6.865h.096l1.701-6.865h2.365l-2.781 9.818h-2.41l-1.841-6.635h-.134l-1.841 6.635h-2.416zm17.104.192c-.985 0-1.835-.205-2.551-.614a4.164 4.164 0 0 1-1.643-1.751c-.383-.759-.575-1.651-.575-2.678 0-1.01.192-1.897.575-2.66a4.35 4.35 0 0 1 1.624-1.79c.695-.43 1.511-.645 2.448-.645.605 0 1.176.098 1.713.294a3.87 3.87 0 0 1 1.432.895c.418.405.746.92.984 1.547.239.622.358 1.363.358 2.224v.71h-8.047v-1.56h5.829a2.492 2.492 0 0 0-.287-1.182 2.095 2.095 0 0 0-.787-.825c-.332-.2-.72-.3-1.163-.3-.473 0-.888.115-1.246.345a2.385 2.385 0 0 0-.838.895c-.196.366-.296.769-.3 1.208v1.361c0 .571.104 1.061.313 1.47.209.405.501.716.876.934.375.213.814.32 1.317.32.336 0 .641-.048.914-.141.272-.098.509-.241.709-.429.2-.187.352-.42.454-.696l2.161.243a3.38 3.38 0 0 1-.78 1.495c-.38.422-.865.75-1.458.985-.592.23-1.27.345-2.032.345zm6.323-.192v-9.818h2.244v1.636h.102c.179-.566.486-1.003.92-1.31.439-.311.94-.467 1.502-.467.128 0 .271.007.429.02.162.008.296.023.402.044v2.129a2.427 2.427 0 0 0-.466-.09 4.297 4.297 0 0 0-.607-.044c-.422 0-.802.091-1.138.274a2 2 0 0 0-.786.748c-.192.32-.288.688-.288 1.106v5.772h-2.314zm11.704 0v-13.09h5.011c.946 0 1.732.148 2.359.447.63.294 1.101.696 1.412 1.208.316.511.473 1.09.473 1.738 0 .533-.102.989-.306 1.368-.205.375-.48.68-.825.914a3.49 3.49 0 0 1-1.157.505v.128c.465.026.91.168 1.336.428.43.256.782.618 1.055 1.087.272.469.409 1.035.409 1.7 0 .678-.164 1.287-.492 1.828-.328.537-.823.961-1.483 1.273-.661.31-1.492.466-2.493.466h-5.299zm2.371-1.981h2.551c.86 0 1.48-.165 1.86-.493.383-.332.575-.758.575-1.278a1.956 1.956 0 0 0-1.106-1.79c-.353-.183-.775-.275-1.265-.275h-2.615v3.835zm0-5.542h2.346c.409 0 .778-.075 1.106-.224a1.86 1.86 0 0 0 .773-.646c.192-.28.288-.613.288-.997 0-.507-.179-.925-.537-1.253-.354-.328-.88-.492-1.579-.492h-2.397v3.612zm11.83-5.568v13.091h-2.371v-13.09h2.371zM275.571 164.864v-13.091h4.91c1.005 0 1.849.187 2.531.562a3.747 3.747 0 0 1 1.553 1.547c.354.652.531 1.394.531 2.225 0 .839-.177 1.585-.531 2.237-.354.652-.876 1.165-1.566 1.54-.69.371-1.54.556-2.55.556h-3.254v-1.949h2.934c.588 0 1.07-.102 1.445-.307.375-.204.652-.486.831-.844.183-.358.274-.769.274-1.233 0-.465-.091-.874-.274-1.228a1.872 1.872 0 0 0-.838-.824c-.375-.2-.858-.301-1.451-.301h-2.173v11.11h-2.372zm11.482 0v-9.818h2.244v1.636h.102c.179-.567.486-1.004.921-1.31a2.53 2.53 0 0 1 1.502-.467c.127 0 .27.006.428.019.162.009.296.024.403.045v2.128a2.49 2.49 0 0 0-.467-.089 4.269 4.269 0 0 0-.607-.045c-.422 0-.801.092-1.138.275a2.013 2.013 0 0 0-.786.748c-.192.32-.288.688-.288 1.106v5.772h-2.314zm11.015.192c-.959 0-1.79-.211-2.493-.633a4.298 4.298 0 0 1-1.636-1.771c-.384-.758-.575-1.645-.575-2.659 0-1.014.191-1.903.575-2.665a4.283 4.283 0 0 1 1.636-1.777c.703-.422 1.534-.633 2.493-.633.959 0 1.79.211 2.493.633a4.237 4.237 0 0 1 1.63 1.777c.388.762.582 1.651.582 2.665s-.194 1.901-.582 2.659a4.251 4.251 0 0 1-1.63 1.771c-.703.422-1.534.633-2.493.633zm.013-1.854c.52 0 .955-.143 1.304-.428.349-.29.609-.678.78-1.164a4.764 4.764 0 0 0 .262-1.623 4.78 4.78 0 0 0-.262-1.63c-.171-.49-.431-.88-.78-1.17-.349-.29-.784-.435-1.304-.435-.533 0-.976.145-1.329.435-.35.29-.612.68-.787 1.17a4.908 4.908 0 0 0-.255 1.63c0 .596.085 1.137.255 1.623.175.486.437.874.787 1.164.353.285.796.428 1.329.428zm6.656-8.156h2.314v10.38c0 .708-.135 1.291-.403 1.752-.268.46-.656.803-1.163 1.029-.507.226-1.123.339-1.848.339-.085 0-.164-.003-.236-.007-.073 0-.151-.002-.237-.006v-1.886c.064.004.122.007.173.007.051.004.104.006.16.006.443 0 .76-.109.952-.326.192-.213.288-.526.288-.94v-10.348zm1.15-1.394c-.37 0-.688-.121-.952-.364a1.184 1.184 0 0 1-.39-.889c0-.349.13-.645.39-.888.264-.247.582-.371.952-.371.367 0 .68.124.94.371.264.243.396.539.396.888 0 .345-.132.642-.396.889-.26.243-.573.364-.94.364zm7.89 11.404c-.985 0-1.835-.205-2.551-.614a4.15 4.15 0 0 1-1.642-1.752c-.384-.758-.576-1.651-.576-2.678 0-1.01.192-1.896.576-2.659a4.348 4.348 0 0 1 1.623-1.79c.695-.43 1.511-.645 2.448-.645.605 0 1.176.098 1.713.294.542.192 1.019.49 1.432.895.418.404.746.92.985 1.547.238.622.357 1.363.357 2.224v.709h-8.047v-1.559h5.829a2.493 2.493 0 0 0-.287-1.183 2.098 2.098 0 0 0-.786-.824c-.333-.201-.721-.301-1.164-.301-.473 0-.888.115-1.246.345a2.392 2.392 0 0 0-.838.895c-.196.367-.296.77-.3 1.208v1.362c0 .571.104 1.061.313 1.47.209.405.501.716.876.933.375.213.814.32 1.317.32.336 0 .641-.047.914-.141.272-.098.509-.24.709-.428a1.77 1.77 0 0 0 .454-.697l2.161.243a3.38 3.38 0 0 1-.78 1.496c-.379.422-.865.75-1.458.984-.592.23-1.269.346-2.032.346zm10.606 0c-.98 0-1.822-.216-2.525-.646a4.308 4.308 0 0 1-1.617-1.783c-.375-.763-.563-1.641-.563-2.634 0-.997.192-1.877.575-2.64a4.297 4.297 0 0 1 1.624-1.79c.703-.43 1.534-.645 2.493-.645.797 0 1.502.147 2.116.441.618.29 1.11.701 1.476 1.233.367.529.576 1.147.627 1.854h-2.212a2.113 2.113 0 0 0-.639-1.182c-.333-.32-.778-.48-1.336-.48a2.09 2.09 0 0 0-1.247.384c-.358.251-.637.613-.837 1.086-.196.473-.294 1.04-.294 1.701 0 .669.098 1.244.294 1.726.196.477.471.845.825 1.105.358.256.777.384 1.259.384a2.1 2.1 0 0 0 .914-.192c.273-.132.501-.322.684-.569.183-.247.309-.547.377-.901h2.212a3.857 3.857 0 0 1-.614 1.847 3.626 3.626 0 0 1-1.445 1.253c-.609.298-1.325.448-2.147.448zm11.008-10.01v1.789h-5.644v-1.789h5.644zm-4.25-2.353h2.314v9.218c0 .311.047.549.14.716a.764.764 0 0 0 .384.332c.157.06.332.089.524.089.145 0 .277-.01.396-.032.124-.021.218-.04.281-.057l.39 1.809a4.4 4.4 0 0 1-1.361.23c-.58.017-1.102-.07-1.566-.262a2.436 2.436 0 0 1-1.106-.908c-.268-.409-.401-.92-.396-1.534v-9.601zm-44.364 25.497h-2.391a2.973 2.973 0 0 0-.377-1.042 2.791 2.791 0 0 0-1.617-1.259 3.634 3.634 0 0 0-1.119-.167c-.711 0-1.342.179-1.892.537-.55.354-.98.874-1.291 1.56-.311.682-.467 1.515-.467 2.499 0 1.002.156 1.845.467 2.532.315.681.746 1.197 1.291 1.546.55.346 1.178.518 1.886.518.392 0 .758-.051 1.099-.153.345-.107.654-.262.927-.467a2.831 2.831 0 0 0 1.093-1.777l2.391.013a5.161 5.161 0 0 1-.582 1.751 5.167 5.167 0 0 1-1.157 1.445 5.345 5.345 0 0 1-1.675.972c-.639.23-1.348.345-2.128.345-1.151 0-2.178-.267-3.081-.799-.904-.533-1.615-1.302-2.135-2.308-.52-1.005-.78-2.211-.78-3.618 0-1.41.262-2.616.786-3.618.524-1.005 1.238-1.774 2.142-2.307.903-.533 1.926-.799 3.068-.799.729 0 1.406.102 2.032.307a5.196 5.196 0 0 1 1.675.901c.49.392.893.874 1.208 1.445.32.566.529 1.214.627 1.943zm2.069 8.674v-9.818h2.244v1.636h.102c.179-.567.486-1.004.92-1.31.439-.311.94-.467 1.503-.467.127 0 .27.006.428.019.162.009.296.024.403.045v2.128a2.49 2.49 0 0 0-.467-.089 4.269 4.269 0 0 0-.607-.045c-.422 0-.801.092-1.138.275a2.006 2.006 0 0 0-.786.748c-.192.32-.288.688-.288 1.106v5.772h-2.314zm11.079.192c-.984 0-1.834-.205-2.55-.614a4.152 4.152 0 0 1-1.643-1.752c-.384-.758-.575-1.651-.575-2.678 0-1.01.191-1.896.575-2.659.388-.767.929-1.364 1.624-1.79.694-.43 1.51-.645 2.448-.645.605 0 1.176.098 1.713.294a3.88 3.88 0 0 1 1.432.895c.417.404.745.92.984 1.547.239.622.358 1.363.358 2.224v.709h-8.048v-1.559h5.83a2.482 2.482 0 0 0-.288-1.183 2.085 2.085 0 0 0-.786-.824c-.332-.201-.72-.301-1.163-.301-.473 0-.889.115-1.247.345a2.382 2.382 0 0 0-.837.895c-.196.367-.296.77-.301 1.208v1.362c0 .571.105 1.061.314 1.47.208.405.5.716.875.933.375.213.814.32 1.317.32.337 0 .641-.047.914-.141.273-.098.509-.24.71-.428.2-.187.351-.42.454-.697l2.16.243a3.36 3.36 0 0 1-.78 1.496c-.379.422-.865.75-1.457.984-.592.23-1.27.346-2.033.346zm14.083-7.415-2.109.23a1.708 1.708 0 0 0-.313-.601 1.562 1.562 0 0 0-.588-.454c-.247-.115-.55-.172-.908-.172-.481 0-.886.104-1.214.313-.324.209-.484.479-.48.812a.85.85 0 0 0 .313.696c.218.179.576.326 1.074.441l1.675.358c.929.201 1.619.518 2.071.953.456.434.686 1.003.69 1.706a2.67 2.67 0 0 1-.543 1.637c-.354.469-.846.835-1.477 1.099-.63.264-1.355.397-2.173.397-1.202 0-2.169-.252-2.902-.755-.733-.507-1.17-1.212-1.31-2.115l2.256-.218c.102.443.32.778.652 1.004.333.226.765.339 1.298.339.55 0 .991-.113 1.323-.339.337-.226.505-.505.505-.838a.872.872 0 0 0-.326-.696c-.213-.184-.546-.324-.997-.422l-1.675-.352c-.942-.196-1.638-.526-2.09-.991-.452-.468-.676-1.061-.671-1.777-.005-.605.159-1.129.492-1.572.337-.447.803-.793 1.4-1.036.601-.247 1.293-.37 2.077-.37 1.151 0 2.056.245 2.717.735.665.49 1.076 1.153 1.233 1.988zm6.402 7.415c-.98 0-1.822-.216-2.525-.646a4.308 4.308 0 0 1-1.617-1.783c-.375-.763-.562-1.641-.562-2.634 0-.997.191-1.877.575-2.64a4.295 4.295 0 0 1 1.623-1.79c.704-.43 1.534-.645 2.493-.645.797 0 1.502.147 2.116.441.618.29 1.11.701 1.477 1.233.366.529.575 1.147.626 1.854h-2.212a2.107 2.107 0 0 0-.639-1.182c-.332-.32-.778-.48-1.336-.48-.473 0-.888.128-1.246.384-.358.251-.637.613-.838 1.086-.196.473-.294 1.04-.294 1.701 0 .669.098 1.244.294 1.726.196.477.471.845.825 1.105.358.256.778.384 1.259.384.341 0 .646-.064.914-.192.273-.132.501-.322.684-.569.183-.247.309-.547.377-.901h2.212a3.847 3.847 0 0 1-.614 1.847 3.623 3.623 0 0 1-1.444 1.253c-.61.298-1.325.448-2.148.448zm10.453 0c-.985 0-1.835-.205-2.551-.614a4.158 4.158 0 0 1-1.643-1.752c-.383-.758-.575-1.651-.575-2.678 0-1.01.192-1.896.575-2.659.388-.767.929-1.364 1.624-1.79.695-.43 1.511-.645 2.448-.645.605 0 1.176.098 1.713.294.541.192 1.019.49 1.432.895.418.404.746.92.984 1.547.239.622.358 1.363.358 2.224v.709h-8.047v-1.559h5.829a2.493 2.493 0 0 0-.287-1.183 2.098 2.098 0 0 0-.786-.824c-.333-.201-.721-.301-1.164-.301-.473 0-.888.115-1.246.345a2.392 2.392 0 0 0-.838.895c-.196.367-.296.77-.3 1.208v1.362c0 .571.104 1.061.313 1.47.209.405.501.716.876.933.375.213.814.32 1.317.32.336 0 .641-.047.914-.141.272-.098.509-.24.709-.428.2-.187.352-.42.454-.697l2.161.243a3.38 3.38 0 0 1-.78 1.496c-.38.422-.865.75-1.458.984-.592.23-1.27.346-2.032.346zm8.637-5.945v5.753h-2.314v-9.818h2.212v1.668h.115c.226-.55.586-.987 1.08-1.31.499-.324 1.114-.486 1.847-.486.678 0 1.268.145 1.771.434.507.29.899.71 1.176 1.26.281.549.42 1.216.415 2v6.252h-2.313v-5.894c0-.656-.171-1.169-.512-1.54-.336-.371-.803-.556-1.4-.556-.405 0-.765.089-1.08.268a1.86 1.86 0 0 0-.735.761c-.175.332-.262.735-.262 1.208zm13.557-4.065v1.789h-5.644v-1.789h5.644zm-4.25-2.353h2.314v9.218c0 .311.047.549.14.716a.764.764 0 0 0 .384.332c.157.06.332.089.524.089.145 0 .277-.01.396-.032.124-.021.218-.04.282-.057l.389 1.809a4.4 4.4 0 0 1-1.361.23c-.58.017-1.102-.07-1.566-.262a2.436 2.436 0 0 1-1.106-.908c-.268-.409-.401-.92-.396-1.534v-9.601z" fill="#000"/>
</svg>
