<svg width="712" height="412" viewBox="0 0 712 412" fill="none" xmlns="http://www.w3.org/2000/svg">
    <g style="mix-blend-mode:screen">
        <path fill="#000" d="M0 0h712v412H0z"/>
        <path d="m10 335 77-77h171.5" stroke="url(#lg7b78qora)"/>
        <path d="M225 206c0-72.349 58.651-131 131-131 72.349 0 131 58.651 131 131 0 72.349-58.651 131-131 131-72.349 0-131-58.651-131-131zm260.552 0c0-71.55-58.002-129.553-129.552-129.553-71.55 0-129.552 58.003-129.552 129.553S284.45 335.552 356 335.552c71.55 0 129.552-58.002 129.552-129.552z" fill="#2F8EF0"/>
        <path d="M417 206a61 61 0 1 1-4.908-23.974l-1.812.775a59.028 59.028 0 0 0-71.889-33.143A59.03 59.03 0 1 0 415.03 206H417z" fill="#92CEF0"/>
        <path fill-rule="evenodd" clip-rule="evenodd" d="m445.916 209.93-.999-.043a91.18 91.18 0 0 0 0-7.774l.999-.043a91.518 91.518 0 0 1 0 7.86zm-.677-15.685-.991.13a88.987 88.987 0 0 0-1.34-7.647l.976-.216a89.507 89.507 0 0 1 1.355 7.733zm-3.382-15.317a89.18 89.18 0 0 0-2.686-7.379l-.924.383a88.056 88.056 0 0 1 2.656 7.297l.954-.301zm-6.01-14.494-.886.463a88.9 88.9 0 0 0-3.889-6.721l.843-.538a89.52 89.52 0 0 1 3.932 6.796zm-8.441-13.225-.793.61a89.529 89.529 0 0 0-4.994-5.946l.737-.676a90.915 90.915 0 0 1 5.05 6.012zm-10.603-11.565-.676.737a89.529 89.529 0 0 0-5.946-4.994l.61-.793a90.915 90.915 0 0 1 6.012 5.05zm-12.441-9.559-.538.843a88.9 88.9 0 0 0-6.721-3.889l.463-.886a89.52 89.52 0 0 1 6.796 3.932zm-13.911-7.256-.383.924a88.056 88.056 0 0 0-7.297-2.656l.301-.954a89.18 89.18 0 0 1 7.379 2.686zm-14.963-4.713-.216.976a88.987 88.987 0 0 0-7.647-1.34l.13-.991c2.614.341 5.194.794 7.733 1.355zm-15.558-2.032-.043.999a91.18 91.18 0 0 0-7.774 0l-.043-.999a91.518 91.518 0 0 1 7.86 0zm-15.685.677.13.991a88.987 88.987 0 0 0-7.647 1.34l-.216-.976a89.507 89.507 0 0 1 7.733-1.355zm-15.317 3.382.301.954a88.056 88.056 0 0 0-7.297 2.656l-.383-.924a89.18 89.18 0 0 1 7.379-2.686zm-14.494 6.01.463.886a88.9 88.9 0 0 0-6.721 3.889l-.538-.843a89.52 89.52 0 0 1 6.796-3.932zm-13.225 8.441.61.793a89.529 89.529 0 0 0-5.946 4.994l-.676-.737a90.915 90.915 0 0 1 6.012-5.05zm-11.565 10.603.737.676a89.529 89.529 0 0 0-4.994 5.946l-.793-.61a90.915 90.915 0 0 1 5.05-6.012zm-9.559 12.441.843.538a88.9 88.9 0 0 0-3.889 6.721l-.886-.463a89.52 89.52 0 0 1 3.932-6.796zm-7.256 13.911.924.383a88.056 88.056 0 0 0-2.656 7.297l-.954-.301a89.18 89.18 0 0 1 2.686-7.379zm-4.713 14.963.976.216a88.987 88.987 0 0 0-1.34 7.647l-.991-.13a89.507 89.507 0 0 1 1.355-7.733zm-2.032 15.558a91.518 91.518 0 0 0 0 7.86l.999-.043a91.18 91.18 0 0 1 0-7.774l-.999-.043zm.677 15.685.991-.13a88.987 88.987 0 0 0 1.34 7.647l-.976.216a89.507 89.507 0 0 1-1.355-7.733zm3.382 15.317.954-.301a88.056 88.056 0 0 0 2.656 7.297l-.924.383a89.18 89.18 0 0 1-2.686-7.379zm6.01 14.494.886-.463a88.9 88.9 0 0 0 3.889 6.721l-.843.538a89.52 89.52 0 0 1-3.932-6.796zm8.441 13.225.793-.61a89.529 89.529 0 0 0 4.994 5.946l-.737.676a90.915 90.915 0 0 1-5.05-6.012zm10.603 11.565.676-.737a89.529 89.529 0 0 0 5.946 4.994l-.61.793a90.915 90.915 0 0 1-6.012-5.05zm12.441 9.559.538-.843a88.9 88.9 0 0 0 6.721 3.889l-.463.886a89.52 89.52 0 0 1-6.796-3.932zm13.911 7.256.383-.924a88.056 88.056 0 0 0 7.297 2.656l-.301.954a89.18 89.18 0 0 1-7.379-2.686zm14.963 4.713.216-.976a88.987 88.987 0 0 0 7.647 1.34l-.13.991a89.507 89.507 0 0 1-7.733-1.355zm15.558 2.032.043-.999a91.18 91.18 0 0 0 7.774 0l.043.999a91.518 91.518 0 0 1-7.86 0zm15.685-.677-.13-.991a88.987 88.987 0 0 0 7.647-1.34l.216.976a89.507 89.507 0 0 1-7.733 1.355zm15.317-3.382-.301-.954a88.056 88.056 0 0 0 7.297-2.656l.383.924a89.18 89.18 0 0 1-7.379 2.686zm14.494-6.01a89.52 89.52 0 0 0 6.796-3.932l-.538-.843a88.9 88.9 0 0 1-6.721 3.889l.463.886zm13.225-8.441-.61-.793a89.529 89.529 0 0 0 5.946-4.994l.676.737a90.915 90.915 0 0 1-6.012 5.05zm11.565-10.603-.737-.676a89.529 89.529 0 0 0 4.994-5.946l.793.61a90.915 90.915 0 0 1-5.05 6.012zm9.559-12.441-.843-.538a88.9 88.9 0 0 0 3.889-6.721l.886.463a89.52 89.52 0 0 1-3.932 6.796zm7.256-13.911-.924-.383a88.056 88.056 0 0 0 2.656-7.297l.954.301a89.18 89.18 0 0 1-2.686 7.379zm4.713-14.963-.976-.216a88.987 88.987 0 0 0 1.34-7.647l.991.13a89.507 89.507 0 0 1-1.355 7.733z" fill="url(#pwl33rplsb)"/>
        <path fill-rule="evenodd" clip-rule="evenodd" d="m496.782 213.91-.999-.055a142.035 142.035 0 0 0 0-15.71l.999-.055a143.019 143.019 0 0 1 0 15.82zm-1.753-31.54-.986.166a139.33 139.33 0 0 0-3.481-15.309l.961-.277a140.378 140.378 0 0 1 3.506 15.42zm-8.728-30.343-.924.383a139.218 139.218 0 0 0-6.822-14.141l.875-.485a140.383 140.383 0 0 1 6.871 14.243zm-15.297-27.625-.815.579a140.769 140.769 0 0 0-9.797-12.27l.745-.666a141.605 141.605 0 0 1 9.867 12.357zm-21.049-23.539-.666.745a140.786 140.786 0 0 0-12.27-9.797l.579-.815c4.305 3.06 8.43 6.355 12.357 9.867zM424.216 82.57a140.426 140.426 0 0 0-14.243-6.87l-.383.923a139.387 139.387 0 0 1 14.141 6.822l.485-.875zM395.05 70.477l-.277.961a139.124 139.124 0 0 0-15.309-3.48l.166-.987c5.244.885 10.389 2.06 15.42 3.506zm-31.14-5.259-.055.999a142.232 142.232 0 0 0-15.71 0l-.055-.999a143.313 143.313 0 0 1 15.82 0zm-31.54 1.753.166.986a139.124 139.124 0 0 0-15.309 3.481l-.277-.96a140.148 140.148 0 0 1 15.42-3.507zM302.027 75.7l.383.924a139.367 139.367 0 0 0-14.141 6.822l-.485-.875a140.404 140.404 0 0 1 14.243-6.87zm-27.625 15.297.579.815a140.786 140.786 0 0 0-12.27 9.797l-.666-.745a141.53 141.53 0 0 1 12.357-9.867zm-23.539 21.049.745.666a140.769 140.769 0 0 0-9.797 12.27l-.815-.579c3.06-4.305 6.355-8.43 9.867-12.357zm-18.293 25.739.875.485a139.218 139.218 0 0 0-6.822 14.141l-.924-.383a140.383 140.383 0 0 1 6.871-14.243zm-12.093 29.166.961.277a139.33 139.33 0 0 0-3.481 15.309l-.986-.166a140.378 140.378 0 0 1 3.506-15.42zm-5.259 31.14a143.019 143.019 0 0 0 0 15.82l.999-.055a142.035 142.035 0 0 1 0-15.71l-.999-.055zm1.753 31.54.986-.166a139.33 139.33 0 0 0 3.481 15.309l-.961.277a140.378 140.378 0 0 1-3.506-15.42zm8.728 30.343.924-.383a139.218 139.218 0 0 0 6.822 14.141l-.875.485a140.383 140.383 0 0 1-6.871-14.243zm15.297 27.625.815-.579c3.038 4.274 6.31 8.37 9.797 12.27l-.745.666a141.605 141.605 0 0 1-9.867-12.357zm21.049 23.539.666-.745c3.9 3.487 7.996 6.759 12.27 9.797l-.579.815a141.605 141.605 0 0 1-12.357-9.867zm25.739 18.293.485-.875a139.218 139.218 0 0 0 14.141 6.822l-.383.924a140.383 140.383 0 0 1-14.243-6.871zm29.166 12.093.277-.961a139.33 139.33 0 0 0 15.309 3.481l-.166.986a140.378 140.378 0 0 1-15.42-3.506zm31.14 5.259.055-.999a142.035 142.035 0 0 0 15.71 0l.055.999a143.019 143.019 0 0 1-15.82 0zm31.54-1.753-.166-.986a139.33 139.33 0 0 0 15.309-3.481l.277.961a140.378 140.378 0 0 1-15.42 3.506zm30.343-8.728-.383-.924a139.218 139.218 0 0 0 14.141-6.822l.485.875a140.383 140.383 0 0 1-14.243 6.871zm27.625-15.297-.579-.815c4.274-3.038 8.37-6.31 12.27-9.797l.666.745a141.605 141.605 0 0 1-12.357 9.867zm23.539-21.049-.745-.666c3.487-3.9 6.759-7.996 9.797-12.27l.815.579a141.605 141.605 0 0 1-9.867 12.357zm18.293-25.739-.875-.485a139.218 139.218 0 0 0 6.822-14.141l.924.383a140.383 140.383 0 0 1-6.871 14.243zm12.093-29.166-.961-.277a139.33 139.33 0 0 0 3.481-15.309l.986.166a140.378 140.378 0 0 1-3.506 15.42z" fill="url(#wikufa548c)"/>
        <path fill-rule="evenodd" clip-rule="evenodd" d="m520.597 227.681-.992-.129A166.57 166.57 0 0 0 521 206c0-7.305-.475-14.499-1.395-21.552l.992-.129A167.496 167.496 0 0 1 522 206c0 7.348-.477 14.585-1.403 21.681zm-11.193-85.224-.924.383a164.79 164.79 0 0 0-21.569-37.289l.793-.609a165.823 165.823 0 0 1 21.7 37.515zm-52.346-68.161-.609.793a164.83 164.83 0 0 0-37.289-21.57l.383-.923a165.836 165.836 0 0 1 37.515 21.7zm-79.377-32.893-.129.992A166.57 166.57 0 0 0 356 41c-7.305 0-14.499.475-21.552 1.395l-.129-.992A167.567 167.567 0 0 1 356 40c7.348 0 14.585.477 21.681 1.403zm-85.224 11.193.383.924a164.83 164.83 0 0 0-37.289 21.569l-.609-.793a165.836 165.836 0 0 1 37.515-21.7zm-68.161 52.346.793.609a164.79 164.79 0 0 0-21.569 37.289l-.924-.383a165.823 165.823 0 0 1 21.7-37.515zm-32.893 79.377A167.496 167.496 0 0 0 190 206c0 7.348.477 14.585 1.403 21.681l.992-.129A166.57 166.57 0 0 1 191 206c0-7.305.475-14.499 1.395-21.552l-.992-.129zm11.193 85.224.924-.383a164.79 164.79 0 0 0 21.569 37.289l-.793.609a165.823 165.823 0 0 1-21.7-37.515zm52.346 68.161.609-.793a164.79 164.79 0 0 0 37.289 21.569l-.383.924a165.823 165.823 0 0 1-37.515-21.7zm79.377 32.893.129-.992A166.57 166.57 0 0 0 356 371c7.305 0 14.499-.475 21.552-1.395l.129.992A167.496 167.496 0 0 1 356 372c-7.348 0-14.585-.477-21.681-1.403zm85.224-11.193-.383-.924a164.79 164.79 0 0 0 37.289-21.569l.609.793a165.823 165.823 0 0 1-37.515 21.7zm68.161-52.346-.793-.609a164.79 164.79 0 0 0 21.569-37.289l.924.383a165.823 165.823 0 0 1-21.7 37.515z" fill="url(#mtyma67x9d)"/>
        <path d="M435 206c0 43.63-35.37 79-79 79s-79-35.37-79-79 35.37-79 79-79 79 35.37 79 79zm-147.03 0c0 37.572 30.458 68.03 68.03 68.03s68.03-30.458 68.03-68.03-30.458-68.03-68.03-68.03-68.03 30.458-68.03 68.03z" fill="#92CEF0"/>
        <path d="M465 206c0 60.199-48.801 109-109 109s-109-48.801-109-109S295.801 97 356 97s109 48.801 109 109zm-214.352 0c0 58.184 47.168 105.352 105.352 105.352 58.184 0 105.352-47.168 105.352-105.352 0-58.184-47.168-105.352-105.352-105.352-58.184 0-105.352 47.168-105.352 105.352z" fill="url(#e3jf3zgsoe)"/>
        <path d="M224.504 194.472a132.008 132.008 0 0 0 53.405 117.951 132.005 132.005 0 0 0 128.54 15.556l-7.005-16.938a113.673 113.673 0 0 1-156.681-114.968l-18.259-1.601z" fill="url(#39wib087gf)"/>
        <path d="M204 206c0-83.947 68.053-152 152-152s152 68.053 152 152-68.053 152-152 152-152-68.053-152-152zm302.32 0c0-83.02-67.3-150.32-150.32-150.32S205.68 122.98 205.68 206 272.98 356.32 356 356.32 506.32 289.02 506.32 206z" fill="url(#8sq587zvpg)"/>
        <path clip-rule="evenodd" d="M530.793 24.5H702.5v1H531.207l-76.853 76.854-.708-.708L530.793 24.5z" stroke="url(#yiswdtfrkh)"/>
        <path clip-rule="evenodd" d="M530.793 324.5H702.5v-1H531.207l-76.853-76.854-.708.708 77.147 77.146z" stroke="url(#hgfss44zvi)"/>
        <path d="m225.5 140-77-77H8.5" stroke="url(#imjectcgsj)"/>
        <circle cx="356.5" cy="205.5" r="60.5" fill="url(#4picqw44hk)"/>
        <circle cx="356.5" cy="205.5" r="60.5" fill="url(#l7b0l45o8l)"/>
        <path d="M344.429 197.524v19.167h14.816c5.204 0 7.898-5.763 7.898-11.464 0-5.519-2.51-10.978-7.898-10.978H335l2.571-8.249h22.776C371.306 186 377 196.008 377 205.834c0 9.643-5.449 19.166-16.653 19.166H335v-24.928l9.429-2.548zM377 217h8v8h-8z" fill="#EEFFFE"/>
        <path d="M469 206A113.003 113.003 0 0 0 359.727 93.061a113.002 113.002 0 0 0-55.869 12.688l7.24 13.921a97.297 97.297 0 0 1 48.111-10.926 97.3 97.3 0 0 1 81.593 49.531A97.304 97.304 0 0 1 453.309 206H469z" fill="url(#bpvrgf6yom)"/>
    </g>
    <defs>
        <linearGradient id="lg7b78qora" x1="240" y1="258" x2="10" y2="370" gradientUnits="userSpaceOnUse">
            <stop/>
            <stop offset=".411" stop-color="#7EB2EA"/>
            <stop offset="1" stop-opacity="0"/>
        </linearGradient>
        <linearGradient id="pwl33rplsb" x1="312.991" y1="123.566" x2="453.566" y2="217.549" gradientUnits="userSpaceOnUse">
            <stop stop-color="#2F8DF0"/>
            <stop offset=".356" stop-color="#6AE4FF"/>
            <stop offset="1" stop-color="#2F8DF0"/>
        </linearGradient>
        <linearGradient id="wikufa548c" x1="288.619" y1="76.854" x2="508.854" y2="224.093" gradientUnits="userSpaceOnUse">
            <stop stop-color="#2F8DF0"/>
            <stop offset=".356" stop-color="#6AE4FF"/>
            <stop offset="1" stop-color="#2F8DF0"/>
        </linearGradient>
        <linearGradient id="mtyma67x9d" x1="276.673" y1="53.956" x2="535.956" y2="227.301" gradientUnits="userSpaceOnUse">
            <stop stop-color="#2F8DF0"/>
            <stop offset=".356" stop-color="#6AE4FF"/>
            <stop offset="1" stop-color="#2F8DF0"/>
        </linearGradient>
        <linearGradient id="e3jf3zgsoe" x1="223" y1="341" x2="459.5" y2="120" gradientUnits="userSpaceOnUse">
            <stop stop-color="#2F8DF0"/>
            <stop offset=".356" stop-color="#6AE4FF"/>
            <stop offset="1" stop-color="#2F8DF0"/>
        </linearGradient>
        <linearGradient id="39wib087gf" x1="408.28" y1="331.95" x2="214.929" y2="176.629" gradientUnits="userSpaceOnUse">
            <stop stop-color="#2F8DF0"/>
            <stop offset=".356" stop-color="#6AE4FF"/>
            <stop offset="1" stop-color="#2F8DF0"/>
        </linearGradient>
        <linearGradient id="8sq587zvpg" x1="428.637" y1="345.221" x2="191.221" y2="186.496" gradientUnits="userSpaceOnUse">
            <stop stop-color="#2F8DF0"/>
            <stop offset=".356" stop-color="#6AE4FF"/>
            <stop offset="1" stop-color="#2F8DF0"/>
        </linearGradient>
        <linearGradient id="yiswdtfrkh" x1="717.408" y1="24.5" x2="467.375" y2="162.597" gradientUnits="userSpaceOnUse">
            <stop/>
            <stop offset=".411" stop-color="#7EB2EA"/>
            <stop offset="1" stop-opacity="0"/>
        </linearGradient>
        <linearGradient id="hgfss44zvi" x1="717.408" y1="324.5" x2="467.375" y2="186.403" gradientUnits="userSpaceOnUse">
            <stop/>
            <stop offset=".411" stop-color="#7EB2EA"/>
            <stop offset="1" stop-opacity="0"/>
        </linearGradient>
        <linearGradient id="imjectcgsj" x1="-4.5" y1="63" x2="225.5" y2="175" gradientUnits="userSpaceOnUse">
            <stop/>
            <stop offset=".411" stop-color="#7EB2EA"/>
            <stop offset="1" stop-opacity="0"/>
        </linearGradient>
        <linearGradient id="bpvrgf6yom" x1="302" y1="102.5" x2="478.5" y2="220.5" gradientUnits="userSpaceOnUse">
            <stop stop-color="#2F8DF0"/>
            <stop offset=".356" stop-color="#6AE4FF"/>
            <stop offset="1" stop-color="#2F8DF0"/>
        </linearGradient>
        <radialGradient id="4picqw44hk" cx="0" cy="0" r="1" gradientUnits="userSpaceOnUse" gradientTransform="rotate(90 75.5 281) scale(60.5)">
            <stop stop-color="#82E8FF"/>
            <stop offset="1" stop-color="#D9D9D9" stop-opacity="0"/>
        </radialGradient>
        <radialGradient id="l7b0l45o8l" cx="0" cy="0" r="1" gradientUnits="userSpaceOnUse" gradientTransform="rotate(90 75.5 281) scale(60.5)">
            <stop stop-color="#82E8FF"/>
            <stop offset="1" stop-color="#D9D9D9" stop-opacity="0"/>
        </radialGradient>
    </defs>
</svg>
